<?xml version="1.0" encoding="UTF-8"?><!DOCTYPE svg PUBLIC "-//W3C//DTD SVG 1.1//EN" "http://www.w3.org/Graphics/SVG/1.1/DTD/svg11.dtd"><svg xmlns="http://www.w3.org/2000/svg" xmlns:xlink="http://www.w3.org/1999/xlink"><symbol id="icon-arrow-down" viewBox="0 0 17 10"><path fill-rule="evenodd" clip-rule="evenodd" d="M.253 1.514c0-.235.105-.459.285-.617a.928.928 0 011.257.048l6.518 6.651L14.705.95a.928.928 0 011.257-.055c.355.3.392.82.08 1.163l-.019.02L8.977 9.4a.905.905 0 01-.653.274.913.913 0 01-.658-.268L.49 2.082a.803.803 0 01-.237-.568z"/></symbol><symbol id="icon-close" viewBox="0 0 29 29"><path d="M21.395 7.676l-14 14M7.395 7.676l14 14" stroke="#019DF4" stroke-width="2" stroke-linecap="round" stroke-linejoin="round"/></symbol><symbol id="icon-document" viewBox="0 0 31 41"><path d="M28.608 14.407h-5.547c-1.94 0-3.613-.643-4.825-1.86-1.212-1.218-1.861-2.885-1.861-4.825V2.174c0-.626.512-1.138 1.138-1.138.626 0 1.138.512 1.138 1.138v5.548c0 1.326.415 2.435 1.195 3.215.78.78 1.895 1.194 3.215 1.194h5.547a1.138 1.138 0 110 2.276z"/><path d="M28.066 40.496H3.087c-1.195 0-2.247-1.053-2.247-2.248V2.743C.84 1.588 1.932.496 3.087.496H18.08c.29 0 .575.113.786.313L29.96 11.335c.227.216.353.512.353.825v26.088c0 1.195-1.053 2.248-2.248 2.248zM3.144 38.22h24.882l.012-.012V12.65L17.625 2.772H3.161a.173.173 0 00-.045.045v35.38c.005.006.017.017.028.023z"/><path d="M22.773 34.379H8.349a1.141 1.141 0 01-1.138-1.138c0-.626.512-1.138 1.138-1.138h14.424c.626 0 1.138.512 1.138 1.138 0 .626-.512 1.138-1.138 1.138zm0-6.1H8.349a1.141 1.141 0 01-1.138-1.138c0-.625.512-1.137 1.138-1.137h14.424c.626 0 1.138.511 1.138 1.137s-.512 1.138-1.138 1.138zm0-6.105H8.349a1.141 1.141 0 01-1.138-1.138c0-.626.512-1.138 1.138-1.138h14.424c.626 0 1.138.512 1.138 1.138 0 .626-.512 1.138-1.138 1.138z"/></symbol><symbol id="icon-egresado" viewBox="0 0 41 31"><path fill-rule="evenodd" clip-rule="evenodd" d="M37.866 28.024h-.996c.165-.5.33-.996.501-1.161.33.165.495.66.495 1.16.166 0 .166 0 0 0zm-6.482-5.157c0 .33-.33.666-.666.831-2.829.501-6.819 1.662-9.977 3.99-.501.33-1.167.33-1.662 0-2.994-2.493-6.984-3.494-9.978-3.99-.33 0-.665-.33-.665-.83V16.55l9.977 4.49c.33.166.83.33 1.166.33.501 0 .831-.165 1.167-.33l10.547-4.786.09 6.613zM3.114 11.063c0-.165.114-.375.33-.5l16.13-7.314h.33l14.798 6.653H19.568c-.666 0-1.167.501-1.167 1.161s.501 1.161 1.167 1.161h14.798l-14.303 6.483h-.5l-16.13-7.314c-.194-.108-.319-.165-.319-.33zM38.862 24.7V11.894c-.022-1.087-.05-2.97-1.662-3.66L21.07.922a3.261 3.261 0 00-2.492 0L2.448 8.235C1.281 8.735.621 9.73.621 11.063c0 1.161.666 2.328 1.827 2.829l3.66 1.662v7.313a3.398 3.398 0 002.658 3.324c2.492.501 6.152 1.497 8.81 3.66.666.5 1.497.83 2.328.83.83 0 1.662-.33 2.328-.83 2.658-2.163 6.317-3.159 8.81-3.66a3.392 3.392 0 002.658-3.324v-7.484l2.493-1.161V24.7c-1.332.666-1.998 2.658-1.998 3.825 0 .666.165 1.16.501 1.497.666.666 1.497.666 2.163.666h.99c.666 0 1.167 0 1.662-.501 1.082-.91.837-4.673-.649-5.487z"/></symbol><symbol id="icon-estudiante" viewBox="0 0 41 41"><path fill-rule="evenodd" clip-rule="evenodd" d="M2.848 33.583H13.4a6.988 6.988 0 01-.068-.849v-8.469c0-.392.05-.75.102-1.092h-2.202c-2.704 0-4.918.802-6.37 2.31-1.32 1.384-2.02 3.341-2.02 5.635l.006 2.465zm12.931-9.317v8.468c0 .683.131 1.19.376 1.435.324.341 1.058.393 1.462.393h18.031c.404 0 1.121-.052 1.463-.393.228-.245.358-.763.358-1.434v-8.486c0-.672-.13-1.173-.358-1.4-.245-.245-.768-.393-1.463-.393l-18.03.017c-.718 0-1.236.13-1.463.375-.24.245-.376.752-.376 1.418zm1.844 12.737c-1.303 0-2.3-.324-3.028-.979H2.575a2.164 2.164 0 01-2.169-2.151v-2.75c0-2.947.928-5.474 2.704-7.313 1.923-2.02 4.74-3.079 8.127-3.079h3.683c.683-.455 1.576-.7 2.703-.7l18.03-.017c1.418 0 2.494.376 3.205 1.121.7.717 1.059 1.759 1.059 3.113v8.486c0 1.355-.342 2.397-1.042 3.125-.734.751-1.827 1.144-3.221 1.144h-18.03zm-6.55-32.237C9.87 5.94 9.25 7.732 9.25 10.094c0 2.373.62 4.166 1.821 5.327 1.173 1.121 2.914 1.696 5.197 1.696 2.299 0 4.04-.57 5.213-1.696 1.224-1.172 1.844-2.965 1.844-5.327 0-2.368-.62-4.155-1.844-5.328C20.31 3.628 18.55 3.06 16.269 3.06c-2.26 0-4.019.57-5.197 1.707zm5.195 14.793c-2.93 0-5.241-.797-6.886-2.38-1.713-1.644-2.573-4.023-2.573-7.085 0-3.051.86-5.441 2.573-7.086C11.027 1.414 13.337.612 16.268.612c2.932 0 5.265.796 6.91 2.396 1.725 1.645 2.59 4.04 2.59 7.086 0 3.062-.865 5.44-2.59 7.086-1.645 1.582-3.961 2.379-6.91 2.379zm24.138 19.835c0 .683-.552 1.223-1.223 1.223H14.15a1.222 1.222 0 01-1.223-1.223c0-.678.546-1.224 1.223-1.224h25.032a1.24 1.24 0 011.223 1.224z"/></symbol><symbol id="icon-profesional" viewBox="0 0 41 41"><path fill-rule="evenodd" clip-rule="evenodd" d="M37.908 21.31c-3.381 2.482-8.748 3.609-17.348 3.609-8.816 0-14.286-1.19-17.65-3.842V13.91c0-.25.217-.455.467-.455h34.081c.25 0 .45.205.45.455v7.399zm-18.686 8.424h2.385v-2.3h-2.385v2.3zm18.686 8.007c0 .268-.2.467-.45.467H3.372c-.25 0-.467-.2-.467-.467V24.127c3.216 1.913 7.564 2.937 13.813 3.222v2.834c0 .706.319 1.292.87 1.662.416.267.951.404 1.6.404h2.43c.667 0 1.184-.137 1.6-.404.569-.37.882-.956.882-1.662V27.36c6.215-.25 10.57-1.224 13.802-3.073V37.74h.006zm-25.02-27.53c0-3.824 3.3-6.966 7.336-6.966h.381c4.036 0 7.32 3.142 7.32 6.967v.722H12.888v-.722zm24.564.723h-7.029v-.722c0-5.22-4.4-9.483-9.817-9.483h-.382c-5.418 0-9.835 4.263-9.835 9.483v.722H3.372a2.968 2.968 0 00-2.966 2.971v23.836c0 1.645 1.332 2.989 2.966 2.989h34.08c1.634 0 2.954-1.338 2.954-2.989V13.905a2.955 2.955 0 00-2.954-2.97z"/></symbol></svg>