<svg width="101" height="118" fill="none" xmlns="http://www.w3.org/2000/svg" viewBox="0 0 101 118"><path fill-rule="evenodd" clip-rule="evenodd" d="M92.996 76.288l-17.34 2.09a26.745 26.745 0 01-4.468 7.463l6.318 16.272-10.784 6.276-11.03-13.525a26.71 26.71 0 01-8.696.202L36.62 109.112l-11.068-5.756 5.531-16.56a27.195 27.195 0 01-3.573-4.806 26.817 26.817 0 01-2.416-5.48L7.959 73.148l.461-12.466 17.337-2.09a26.748 26.748 0 014.467-7.464l-6.317-16.272L34.69 28.58l11.035 13.526a26.703 26.703 0 018.695-.202l10.376-14.046 11.069 5.756-5.532 16.56a27.015 27.015 0 013.574 4.805 26.827 26.827 0 012.416 5.48l17.135 3.363-.462 12.466zM48.58 80.28c6.514 1.175 12.748-3.153 13.923-9.667 1.175-6.514-3.152-12.748-9.666-13.923-6.515-1.175-12.748 3.153-13.924 9.667-1.175 6.514 3.153 12.748 9.667 13.923z" fill="#0B2739"/><path d="M54.85 12.854s12.788 9.84 7.02 26.156c-1.322 3.741-4.925 6.187-8.891 6.09l-4.842-.116s2.78-19.006 3.71-27.78l3.004-4.35z" fill="#fff"/><path opacity=".2" d="M57.667 42.934c-.41.31.143-3.161-.664-3.856a5.736 5.736 0 01-.934-1.056c-.794-1.181-2.053-3.362-3.032-5.983-1.06-2.839-1.31-5.347-1.188-7.824.284-5.686 3.044-7.023 4.617-7.353.876-.182 1.59-.12 2.201.067-1.971-2.655-3.816-4.075-3.816-4.075l-3.004 4.352c-.93 8.772-3.71 27.78-3.71 27.78l4.842.116a9.236 9.236 0 005.67-1.773c-.474-.297-.856-.491-.982-.395z" fill="#fff"/><path d="M52.343 21.07L49.91 31.175l.758 3.127 4.866 1.926-3.191-15.16z" fill="#EDEDED"/><path d="M46.039 6.974a1.891 1.891 0 01-.74-1.774c.146-1.02 1.068-1.442 1.12-1.465l-.38 3.24z" fill="#0B2739"/><path d="M45.935 9.047c-.052.222-.169.5-.26.625-.104.143-.154.3-.083.429.056.105.156.148.29.15.102 0 .277-.005.47-.004L45.953 9c-.006.018-.016.032-.019.048z" fill="#E95D4E"/><path d="M46.273 4.944c.764-1.07 2.105-2.173 4.092-1.926 2.024.25 3.744 1.101 4.03 3.654.09.807-.132 1.746-.395 2.521a6.573 6.573 0 01-.211.487s-.645 2.055-4.463 3.717l-.003-.006a1.586 1.586 0 01-2.056-.698l-.247-.463c-2.37-5.337-.747-7.286-.747-7.286z" fill="#E95D4E"/><path d="M50.324 12.132s1.62 1.962 1.522 5.074l4.635-2.892-3.669-4.388-2.488 2.206z" fill="#E95D4E"/><path opacity=".05" d="M46.194 5.062c-.05.083-.118.21-.186.389.052.4.236.92.67 1.306.926.822 3.491 1 3.491 1l-3.975-2.695z" fill="#000"/><path opacity=".07" d="M63.36 30.544v-.012c-.053-7.88-4.257-13.43-6.735-16.021 1.033 1.416 6.985 10.562-.148 24.691l.375 5.001a8.147 8.147 0 002.606-1.54 9.075 9.075 0 002.117-2.93c.054-.128.106-.257.153-.388 1.125-3.088 1.601-5.94 1.63-8.541.001-.087.004-.174.003-.26z" fill="#000"/><path d="M17.033 63.722l-1.24-.797c1.796-3.35 4.625-8.267 4.625-8.267l2.907 2.864a29.031 29.031 0 00-2.744 2.328c-1.8 1.734-3.523 3.843-3.548 3.872z" fill="#E95D4E"/><path d="M11.214 65.67c-.084-.268 1.766-1.47 3-2.038-.352.295-.686.693-.057.783.919.132 2.824-.413 3.31-1.13.281.448.426 1.102.481 1.559.073.588-6.397 1.917-6.734.825z" fill="#fff"/><path d="M14.158 64.417c-.63-.09-.295-.489.056-.784.766-.352 1.412-.616 1.552-.702.366-.226.426-.6.426-.6l.392-.14s.802.965.883 1.094c-.486.719-2.39 1.264-3.31 1.132z" fill="#E95D4E"/><path d="M51.368 45.28l3.297-9.699-11.835 1.221a23.753 23.753 0 00-16.88 9.804l-7.102 9.926 3.988 1.733s10.202-14.05 28.532-12.986z" fill="#fff"/><path opacity=".15" d="M51.368 45.277l1.186-3.49L49.7 37.26c-18.108 2.65-27.206 15.752-29.618 19.803l2.753 1.198c0 .002 10.202-14.047 28.533-12.985z" fill="#000"/><path d="M36.486 53.232l-1.871-.212c-.925-4.463-2.107-11.16-2.107-11.16l4.875.398a34.815 34.815 0 00-.73 4.252c-.321 2.982-.165 6.678-.166 6.722z" fill="#E95D4E"/><path d="M29.531 57.235c-.148-.303 1.814-2.072 3.168-2.978-.361.416-.681.95.08.939 1.114-.017 3.265-1.021 3.706-1.963.418.477.71 1.224.863 1.753.197.681-7.212 3.476-7.817 2.249z" fill="#fff"/><path d="M32.782 55.196c-.761.012-.441-.523-.08-.938.84-.562 1.555-.996 1.705-1.125.389-.337.39-.791.39-.791l.438-.24s1.132.992 1.253 1.13c-.441.943-2.592 1.946-3.706 1.964z" fill="#E95D4E"/><path d="M37.5 45.29L32.34 45c-.53-7.594.137-20.831 3.727-21.622C40.59 22.383 60.87 41.05 60.87 41.05c-2.972 4.622-9.505 4.227-9.505 4.227-8.247-.576-12.557-9.837-12.557-9.837.728 2.577-.245 6.635-1.307 9.85z" fill="#fff"/><path opacity=".05" d="M39.515 36.73c1.528 2.567 5.535 8.107 11.854 8.548 0 0 2.762.167 5.51-.986 1.806-2.447-4.303-.911-10.783-9.989-2.045-2.866-4.965-4.185-7.398-3.685-2.198.452-3.703 2.288-4.429 4.925-.76 2.76-.983 5.854-.725 9.177l.029.349 3.93.222c1.062-3.216 2.037-7.274 1.309-9.85 0-.002.257.48.703 1.289z" fill="#000"/><path opacity=".1" d="M50.71 12.704a8.22 8.22 0 01.99 2.64c.063.327.54.313.579-.018a7.846 7.846 0 00-.363-3.421c-.338.262-.739.531-1.205.799z" fill="#000"/><path d="M48.947 1.286c2.468-1.06 5.547.415 7.242 2.25 1.584 1.716 2.702 4.554 1.75 7.222-.738 2.072-2.402 3.13-2.883 3.425-.52.32-2.262 1.403-3.052.802-.837-.638.53-2.305-.254-4.517-.397-1.122-1.474-2.739-3.132-3.522-.976-.46-2.268-.685-2.545-1.648a1.89 1.89 0 01-.046-.476c.007-1.634 1.732-3.025 2.92-3.536z" fill="#0B2739"/><path opacity=".1" d="M57.941 10.758c.952-2.668-.167-5.506-1.75-7.222a8.728 8.728 0 00-2.207-1.703c2.372 2.305 5.912 7.141 1.072 12.35.484-.296 2.146-1.353 2.885-3.425z" fill="#000"/></svg>