<svg width="157" height="118" fill="none" xmlns="http://www.w3.org/2000/svg" viewBox="0 0 157 118"><g clip-path="url(#clip0)"><path d="M107.082 98.091l4.295 24.84c24.941.534 32.901-7.207 32.901-7.207 2.677-24.291-6.322-67.292-21.528-66.98-15.206.312-16.82 14.435-22.374 26.912-5.555 12.48-24.684 11.31-24.684 11.31v8.495s24.281 4.725 31.39 2.63z" fill="#0B2739"/><path d="M111.623 122.934l4.72 32.93h23.305l2.84-38.843c-3.508 2.17-12.6 6.266-30.865 5.913z" fill="#019DF4"/><path opacity=".2" d="M126.662 64.762c.216 1.434.33 3.106.321 5.049 0 0-.253 5.951-2.359 12.527-2.623 8.192-9.465 14.045-17.542 15.753l1.945 11.249c2.822 1.711 7.353 2.716 13.63-1.145 11.516-7.083 4.005-43.433 4.005-43.433z" fill="#000"/><path opacity=".2" d="M129.795 51.896l-21.914 8.7c2.718-1.029 8.631-2.798 15.414-.958 9.474 2.57 16.744 11.127 18.948 21.96-2.509-12.737-6.809-24.33-12.448-29.702z" fill="#000"/><path d="M42.388 50.446l19.103 60.288-30.707 4.668V55.42l11.604-4.974z" fill="#F5F5F5"/><path opacity=".1" d="M43.933 55.32L28.28 57.989S54.632 74.43 50.272 112.23l7.371-13.636-13.71-43.273z" fill="#000"/><path d="M35.99 52.246c-.17-4.435-5.87-6.188-8.504-2.608-6.63 9.02-14.75 28.172-15.233 68.056v26.759H55.9s-.861-29.443-11.433-53.358c-6.37-14.409-8.104-29.293-8.475-38.849z" fill="#E95D4E"/><path opacity=".1" d="M12.253 117.695v26.76h39.233l-.22-1.94c-45.759-37.474-23.78-92.877-23.78-92.877-6.63 9.02-14.75 28.174-15.233 68.057z" fill="#fff"/><path d="M125.204 40.38a19.105 19.105 0 00-1.326 2.901l-.008-.003c-1.529 1.342-4.131 3.263-7.81 4.4-2.707.837-5.426 1.676-7.973.443-2.761-1.339-4.067-4.247-4.631-7.175a38.622 38.622 0 01-.384-12.135c.468-3.724 1.168-7.572 4.531-9.756.99-.677 2.103-1.121 3.216-1.565 6.23-2.334 14.284.02 16.759 8.495.738 2.527.941 5.351.473 7.951-.424 2.36-1.696 4.38-2.847 6.445z" fill="#F8D2B3"/><path opacity=".2" d="M108.975 43.352c-6.288-7.042-4.542-19.629-4.542-19.629l-.35.095c-.539 1.577-.799 3.297-1.012 4.991a38.68 38.68 0 00.383 12.135c.543 2.814 1.77 5.61 4.315 7.01 2.38-.65 3.538-1.989 1.206-4.602z" fill="#fff"/><path d="M128.697 36.47c1.03-3.904.848-7.94-.327-11.808-1.06-3.208-3.332-6.042-6.327-7.649-3.273-1.729-7.029-.835-10.497-.243-.99.17-2.078.27-3.098.274-2.135-.06-3.29-.811-5.395-.198-2.67.794-4.162 3.44-3.093 5.713 1.903 3.658 6.045 4.798 9.957 4.809 1.283.035 3.46-.176 4.7-.388 1.238-.211 2.172-.71 3.031.33.539.67 2.742 3.697 3.464 4.17.75.49.034-.63 1.92-.397.568.07 1.056.472 1.339.968.284.495.07.334.098.902.05 1.029-1.247 1.154-1.331 2.168-.244 2.934.296 7.902.736 8.156.781.451 2.319-1.301 2.812-1.893 1.231-1.735 1.481-3.045 2.011-4.915z" fill="#F28D15"/><path d="M108.618 24.837l.176-.603 7.012 2.502s-6.454 2.789-7.898.522c0 0-8.142.238-7.95-4.696.002-.001 7.274 1.875 8.66 2.275z" fill="#F28D15"/><path d="M125.093 42.95s-3.298 2.59-9.908 2.589l-2.109-10.647v-3.01s-.88-4.038-5.167-4.624l-.672-5.304 17.103 2.368 2.454 8.48-1.701 10.147z" fill="#F28D15"/><path d="M112.033 31.07l.01-.043c1.064-.434 2.302-.496 3.049.566.808 1.148.324 2.644-.672 3.649-.364.367-.952.823-1.415 1.152l-.972-5.323z" fill="#F8D2B3"/><path opacity=".1" d="M128.37 24.662c-1.06-3.208-3.332-6.042-6.327-7.649-3.273-1.729-7.029-.835-10.497-.243-.491.084-1.006.15-1.525.197 3.22-.054 10.123.412 8.487 5.592-2.115 6.7 0 6.358 2.115 11.185 2.115 4.83-4.76 8.76-7.757 9.605l7.307 2.551a21.774 21.774 0 002.596-1.72c1.329-.539 2.089-1.06 2.277-1.198.663-.463 1.341-1.244 1.638-1.6 1.233-1.736 1.485-3.046 2.015-4.915 1.028-3.901.846-7.937-.329-11.805z" fill="#000"/><path d="M52.393 34.852s.303 9.778-2.73 11.693c-3.035 1.915-10.315-3.528-10.315-3.528l8.697-19.052H53.1l-.707 10.887z" fill="#F8D2B3"/><path opacity=".1" d="M52.411 34.281l.459-7.06-1.606-3.254h-1.486l-2.895 3.137-.39.262-7.08 15.508.09.26c.88.633 5.289 3.703 8.376 3.818-2.08-2.626-2.338-7.085-2.338-7.085 4.083.096 5.99-2.667 6.87-5.586z" fill="#000"/><path d="M52.394 34.852s9.1-9.879-2.022-15.624c0 0-1.82-1.008-4.349-.605 0 0-2.831-4.637-9.404-3.125C30.046 17.01 26.405 19.328 26 27.19c-.404 7.862-8.798 6.552-4.146 15.12 4.652 8.567 25.281 9.98 24.068 5.04-1.214-4.94-1.618-8.568-1.618-8.568s6.876-3.125 7.787-12.5c-.002 0 .402 5.545.302 8.57z" fill="#642A72"/><path opacity=".1" d="M50.37 19.228s-1.82-1.008-4.349-.605c0 0-2.831-4.637-9.404-3.125-6.573 1.512-10.214 3.83-10.618 11.693-.404 7.862-8.798 6.552-4.146 15.12 2.007 3.696 6.986 6.06 11.903 7.155-2.462-3.64-5.52-10.424-1.066-17.75 6.603-10.86 12.71-7.898 16.67-10.53 3.424-2.275 6.332 2.592 6.536 5.673.026-2.625-1.267-5.431-5.526-7.631z" fill="#fff"/><path d="M46.689 100.806c-10.108 31.052.792 99.652.792 99.652h13.298l10.094-67.385s7.637 38.112 5.42 71.252h14.96s15.04-54.869 10.64-98.334L66.874 91.095l-20.185 9.711z" fill="#0B2739"/><path d="M19.661 54.683c-3.704-3.455-1.074-9.625 3.994-9.38 2.004.097 4.228.327 6.527.786 8.001 1.595 12.105 6.865 35.708.486 23.603-6.38 71.205-5.464 72.805-.539 1.6 4.925-.4 9.311-41.204 16.49 0 0-2 7.177 4.4 43.465 0 0-32.803-9.171-55.204-5.185 0 0 5.119-23.657 14.402-39.477 0 0-18.802 10.766-34.803-1.197-2.799-2.094-4.961-3.896-6.625-5.449z" fill="#019DF4"/><path opacity=".1" d="M30.386 49.19c13.278 2.206 11.595 7.17 29.033 3.999V48.14c-17.981 3.801-22.03-.616-29.236-2.053a44.532 44.532 0 00-6.527-.787c-5.068-.245-7.698 5.925-3.993 9.38-.002.002-2.555-7.696 10.723-5.49z" fill="#fff"/><path opacity=".1" d="M107.237 50.446c.094-3.31-1.052-6.093-2.612-8.329-6.51.135-13.302.524-19.743 1.198L64.968 56.312s-4.443 17.714 12.644 22.995c17.088 5.28 18.625 11.788 18.625 11.788l2.676-4.035c-2.68-20.011-1.42-24.535-1.42-24.535s9.466-2.273 9.744-12.079z" fill="#000"/><path d="M79.769 16.005s-4.914-1.206-7.35 1.479c-2.096 2.309-2.481 5.797-4.448 6.905-1.967 1.108-8.894 1.705-4.704 12.532 0 0-9.577 3.836-3.848 18.498h21.467L79.77 16.005z" fill="#0B2739"/><path d="M59.419 55.42s5.259 11.197 21.467 8.77c16.208-2.425 13.29-10.975 17.345-13.815s10.059-10.604-4.705-20.791c0 0-2.533-18.42-13.759-13.577l-8.792 18.428L59.42 55.42z" fill="#0B2739"/><path opacity=".2" d="M93.526 29.582s-.909-6.613-4.052-10.872c-1.69 1.596-3.107 3.74-3.997 6.366-1.859 5.487-3.213 11.059-4.092 13.922-.893 2.905-2.469 4.81-5.157 5.4-3.287.722-6.423-1.365-8.908-4.562-1.255-1.614-3.216-4.069-5.062-6.177.213.97.542 2.05 1.01 3.26 0 0-9.578 3.837-3.849 18.5 0 0 5.259 11.196 21.467 8.77 3.027-.452 5.386-1.12 7.248-1.922.41-1.053.748-2.226 1.007-3.535 1.18-5.977 1.943-10.43 3.454-15.073 1.738-5.338 4.511-8.4 7.2-7.86.279.055.538.135.779.235-1.478-2.01-3.74-4.17-7.048-6.452z" fill="#000"/><path opacity=".1" d="M72.417 17.484c-2.096 2.309-2.48 5.797-4.448 6.905-1.53.861-6.059 1.415-6.025 6.713 3.11 2.1 5.276 3.106 6.805 3.486 1.405.348 2.222.179 2.977-.262 3.699-2.16-.931-11.878 3.454-16.32 1.393-1.41 3.258-1.847 4.587-2 .002 0-4.912-1.207-7.35 1.478z" fill="#fff"/><path opacity=".15" d="M51.028 90.865s-.395 5.614 23.245 9.861c0 0-14.854 1.852-11.653 24.206 2.018 14.087-1.841 75.526-1.841 75.526l10.094-67.385s7.637 38.112 5.42 71.252h14.96s15.04-54.869 10.64-98.334a517.926 517.926 0 01-2.166-13.208l-3.49-1.688-45.209-.23z" fill="#000"/><path d="M99.605 77.155c-6.359 10.881-23.913 9.812-23.913 9.812v8.494s19.606 3.815 28.741 3.069l-4.829-21.375z" fill="#0B2739"/><path d="M75.692 86.967l-14.794-.688a31.497 31.497 0 00-1.728-.773c-1.422-.867-3.154-2.291-4.382-4.516-1.325-2.4-1.052.153-.524 3.005-1.597-.324-3.316-.506-5.083-.428-7.746.343-2.696 7.257 3.338 8.95 3.86 1.085 7.101.505 8.938-.054l14.237 2.995v-8.491h-.002z" fill="#F8D2B3"/><path opacity=".3" d="M51.863 90.865c-2.673-1.477-2.542-5.056-2.149-7.31-.177.002-.355.006-.534.014-7.326.325-3.207 6.523 2.365 8.628 1.718.208 2.387-.189.318-1.332z" fill="#fff"/><path opacity=".05" d="M121.696 88.332c-6.4 2.2-14.371 4.315-23.666 5.438-14.816 1.79-27.407.38-36.335-1.38l.002.124 13.997 2.945s19.605 3.816 28.74 3.07l-.007-.033c6.999-.664 13.348-4.415 17.269-10.164z" fill="#fff"/></g><defs><clipPath id="clip0"><path fill="#fff" transform="translate(.5 .359)" d="M0 0h156v117H0z"/></clipPath></defs></svg>