<svg width="93" height="118" fill="none" xmlns="http://www.w3.org/2000/svg" viewBox="0 0 93 118"><path d="M29.051 26.62c-.88-.76-6.275-5.567-5.858-12.488.212-3.488 2.001-9.201 5.918-10.144 1.077-.26 2.08-.1 2.843.127C38.785-.022 41.674-.138 42.911.92c1.677 1.435 1.8 6.28 1.8 6.28 2.866-.083 5.132 1.855 5.385 3.909.302 2.44-2.199 5.351-5.754 5.154-5.094 3.45-10.192 6.905-15.29 10.356z" fill="#0B2739"/><path opacity=".1" d="M30.967 23.505l-.563 2.199-1.353.916c-.88-.76-6.275-5.567-5.858-12.488.212-3.488 2.001-9.201 5.918-10.144 0 0-9.216 10.606 1.856 19.517z" fill="#000"/><path d="M45.968 22.487c1.203-3.983 1.8-8.687-.88-11.981-2.504-3.078-7.546-4.54-11.418-3.004-2.84 1.126-4.364 3.44-4.92 4.383-1.043 1.763-1.74 3.85-1.89 5.9 0 0-.148 2.612.895 5.403 2.005 5.363 8.132 8.639 11.17 9.976.972.43 2.109.094 2.675-.805a31.211 31.211 0 002.381-4.557c.366-.865.805-1.92 1.241-3.09.343-.018.649-.026.839-.04.298-.023.514-.131.63-.373.141-.299.01-.641-.242-.947-.15-.186-.332-.518-.481-.865z" fill="#E95D4E"/><path opacity=".07" d="M46.578 15.802s-1.14 1.65-5.363.428c0 0-3.79 1.912-8.56.522 0 0 .257-.619-.485-1.23l9.127-2.348 5.28 2.628z" fill="#000"/><path d="M28.214 25.845l2.415-5.847.014-3.626 1.871-.51s5.624 1.792 8.233-.985c0 0 3.432 2.728 6.961.548l.231-3.827-11.243-7.99-8.94 5.664-1.018 2.62a14.464 14.464 0 00.197 10.976l1.279 2.977z" fill="#0B2739"/><path d="M32.544 17.356l-.034-1.495c-.768-.57-1.748-.876-2.571-.171-.887.76-.81 2.068-.213 3.082.216.373.596.86.902 1.222l1.096-2.385c.22-.037.82-.253.82-.253z" fill="#E95D4E"/><path opacity=".1" d="M45.509 7.666s4.226 1.062 3.603 4.118c-.622 3.06-4.177 3.347-5.474 3.187-1.297-.16 5.888-2.788 1.87-7.305z" fill="#000"/><path d="M75.703 111.213l14.344-2.404c-.857-21.402-6.8-58.226-17.087-59.325C60 48.094 8.7 106.935 8.7 106.935c11.598 11.452 28.216 8.515 28.216 8.515 22.89-4.151 32.09-31.382 32.09-31.382-1.24 7.43 2.736 18.477 6.697 27.145z" fill="#0B2739"/><path d="M66.46 62.986l12.078-3.861-2.14 9.801-9.938-.76v-5.18z" fill="#E95D4E"/><path d="M73.546 62.721l5.083-17.337 5.381.768-3.905 15.518-6.56 1.051z" fill="#313235"/><path d="M67.317 67.353L81.37 56.691l.59 5.821a7.214 7.214 0 01-5.427 7.726l-6.738 1.684-2.478-4.569z" fill="#E95D4E"/><path d="M92.297 106.577C87.732 89.725 28.898 84.94 28.898 84.94s0 .004-.003.004l-20.2 21.995c5.77 5.698 12.784 7.829 18.373 8.541 0-.003 69.795 7.949 65.23-8.903z" fill="#0B2739"/><path opacity=".2" d="M65.861 91.096c2.147-4.092 3.142-7.032 3.142-7.032-.391 2.355-.26 5.072.227 7.964 6.406 1.863 12.32 4.163 16.592 6.965-.783-5.761-2.132-11.143-4.081-16.043-2.847-7.156-7.621-11.829-13.908-12.414-6.958-.648-15.093 3.738-19.558 12.585-.67 1.33-1.32 2.665-1.945 3.988 6.033.954 12.931 2.258 19.531 3.987z" fill="#000"/><path opacity=".05" d="M68.264 111.392c-11.777-2.314-20.9-8.486-26.952-15.574a367.187 367.187 0 00-9.399-10.587c-1.908-.198-3.015-.287-3.015-.287s0 .003-.003.003l-20.2 21.995c5.77 5.699 12.784 7.83 18.373 8.542 0 0 67.607 7.703 65.39-8.12a99.18 99.18 0 01-2.464 1.576c-5.262 3.231-12.1 4.345-21.73 2.452z" fill="#fff"/><path d="M69.71 64.946s-1.233.272-3.25.69V62.78l-32.105-6.664c-.231-1.89-.451-3.734-.652-5.511a54.242 54.242 0 00-7.36-21.738l-.593-.988S-6.352 50.505 1.82 93.336a26.513 26.513 0 006.992 13.468c1.036-1.185 8.989-10.237 19.077-20.813 3.47 2.307 7.628 3.23 12.578 1.695 20.936-6.499 32.668-16.2 32.668-16.2l-3.425-6.54z" fill="#F28D15"/><path opacity=".1" d="M36.595 56.58l-2.24-.466c.544 4.483 1.159 9.23 1.796 14.012 7.278.1 23.4-3.06 30.31-4.494v-1.2c-18.977 1.46-26.762-3.966-29.866-7.852zM26.342 28.864l-.592-.988S-6.352 50.501 1.82 93.332c1.126 5.892 4.167 10.994 8.378 14.784 1.886-2.635 3.298-5.672 4.167-9.223a36.935 36.935 0 00.894-12.302c-1.554-16.826-4.95-19.212-4.684-28.353.357-12.306 7.032-25.864 14.5-26.665 1.204-.13 2.233.093 2.926.31a48.576 48.576 0 00-1.659-3.02z" fill="#000"/><path d="M26.343 28.864a54.173 54.173 0 015.295 11.884c-.04-4.61 2.985-9.928 2.985-9.928l-3.998-10.822-4.875 7.878.593.988z" fill="#E95D4E"/><path opacity=".1" d="M34.611 30.85a23.18 23.18 0 01-3.089-2.366c.522 3.588.559 7.926.313 10.036.63-3.787 2.624-7.398 2.776-7.67z" fill="#000"/><path d="M73.144 18.561c.776 0 1.053-.273 1.053-1.053 0-.78-.277-1.053-1.053-1.053-.776 0-1.053.277-1.053 1.053 0 .776.277 1.053 1.053 1.053zm6.494 5.503c-.776 0-1.053.274-1.053 1.054s.277 1.053 1.053 1.053c.776 0 1.053-.273 1.053-1.053 0-.78-.277-1.053-1.053-1.053z" fill="#0B2739"/><path d="M89.247 19.953c-.347-.27-.776-.508-1.19-.734-.346-.19-.978-.538-1.123-.733.02-.25.41-.893.624-1.248.566-.936 1.151-1.904.66-2.75-.496-.858-1.635-.835-2.738-.811-.406.008-1.151.023-1.373-.078-.102-.223-.086-.964-.078-1.373.023-1.1.047-2.24-.812-2.738-.842-.484-1.81.101-2.745.663-.355.214-1.003.604-1.249.624-.195-.145-.542-.776-.733-1.123-.226-.414-.464-.843-.733-1.19-.152-.199-.62-.796-1.365-.796-.184 0-.745 0-1.365.796-.27.347-.508.776-.734 1.19-.19.347-.538.979-.733 1.123-.25-.02-.893-.41-1.248-.624-.936-.566-1.904-1.15-2.75-.66-.858.496-.835 1.635-.811 2.739.008.405.023 1.15-.078 1.373-.223.101-.964.085-1.373.078-1.1-.024-2.239-.047-2.738.81-.492.847.093 1.815.659 2.75.214.356.605 1.003.624 1.249-.144.195-.776.542-1.123.733-.414.226-.843.464-1.19.733-.199.152-.796.62-.796 1.366 0 .183 0 .745.796 1.365.347.269.776.507 1.19.733.347.191.979.538 1.123.733-.02.25-.41.893-.624 1.248-.566.936-1.15 1.904-.66 2.75.496.858 1.635.835 2.739.811.406-.007 1.15-.023 1.373.079.101.222.086.963.078 1.372-.024 1.1-.047 2.24.811 2.738.846.492 1.814-.093 2.75-.659.355-.214 1.002-.604 1.248-.624.195.145.542.776.733 1.124.226.413.464.842.733 1.19.153.194.62.795 1.366.795.183 0 .745 0 1.365-.796.269-.347.507-.776.733-1.19.191-.347.538-.978.733-1.123.25.02.894.41 1.249.624.936.566 1.903 1.15 2.75.66.857-.496.83-1.635.81-2.739-.007-.405-.023-1.15.079-1.372.222-.102.963-.086 1.373-.079 1.1.024 2.238.047 2.738-.81.491-.847-.094-1.815-.66-2.75-.214-.356-.604-1.003-.624-1.249.145-.195.777-.542 1.124-.733.413-.226.842-.464 1.19-.733.194-.152.795-.62.795-1.366 0-.19 0-.748-.8-1.369zm-16.104-5.055c1.634 0 2.613.975 2.613 2.613s-.975 2.613-2.613 2.613c-1.639 0-2.614-.975-2.614-2.613s.98-2.613 2.614-2.613zm-.859 12.93a.78.78 0 01-1.096.124.782.782 0 01-.132-1.084L80.499 14.8a.781.781 0 011.228.963l-9.443 12.064zm7.353-.102c-1.635 0-2.614-.975-2.614-2.613S78 22.5 79.638 22.5s2.613.975 2.613 2.613-.979 2.613-2.613 2.613z" fill="#0B2739"/></svg>