<svg width="133" height="146" fill="none" xmlns="http://www.w3.org/2000/svg" viewBox="0 0 133 146"><path d="M69.717 46.357c2.335-1.045 4.756-2.174 7.231-2.822 1.306-.342 2.748-.614 3.963-.025.614.297 1.119.982 1.751 1.234 1.992.794 4.156-1.114 6.274-.783 1.258.197 2.252 1.144 3.42 1.648 1.203.52 2.55.554 3.856.582 2.647.055 6.003.111 8.651.167H69.717v-.001z" fill="#F8D2B3"/><path d="M72.848 82.934c1.1-1.596.9-2.728.41-3.157-1.518-1.333-9.86 6.105-7.043-1.174 2.818-7.278-2.348-4.696-4.461-3.756-2.114.94-13.619 9.391-9.157.234 4.461-9.157-10.837-2.438-12.715-2.202-1.878.234-.617-1.878 1.099-9.045 2.077-8.68-25.248 17.587-27.126 11.717-1.64-5.126-10.802 4.79-13.095 7.383h72.088zM79.361 111.828s8.536-8.066 9.789-6.656c1.252 1.409.078 3.053 1.252 2.662 1.175-.392 7.44-5.247 8.379-4.856.94.391-.391 3.759 1.097 3.211 1.488-.549 20.282-15.818 23.492-14.096 3.211 1.722-5.951 17.54-2.506 16.915 3.446-.626 10.415-4.699 11.198-2.819.783 1.879-1.252 5.638-1.252 5.638H79.361v.001z" fill="#F4F4F3"/><path d="M57.313 15.744s-2.346-6.979 2.503-6.815c4.85.164-1.216 5.883-1.037 6.84.177.959-1.466-.025-1.466-.025z" fill="#0B2739"/><path opacity=".3" d="M58.788 15.896a.611.611 0 00-.011-.125c-.118-.635 2.504-3.36 2.875-5.174-4.582-1.985-3.996 3.827-3.752 5.442.156.065.318.119.463.141l.425-.284z" fill="#000"/><path d="M104.225 78.485c2.712-1.066 4.661-2.523 6.239-3.339 3.604-1.863 5.475-.967 6.779.154 1.592 1.37.593 2.134-2.357 2.716-3.565.703-5.343.932-8.275 3.478-2.933 2.545-6.012-1.583-2.386-3.01z" fill="#F8CCCC"/><path d="M110.864 74.889s4.578-1.81 5.47 1.14c.466 1.533-2.067 2.12-2.067 2.12s3.351-.526 4.26-1.432c.433-.433.694-1.163.523-1.66-.237-.681-.609-1.152-1.585-1.58-.606-.264-2.244-.442-3.474-.087-1.678.482-3.127 1.499-3.127 1.499zM58.127 145.132c-.353-.392 1.863-3.905 3.523-5.85-.367.782-.623 1.726.521 1.385 1.676-.5 4.502-2.933 4.77-4.544.834.545 1.597 1.55 2.052 2.284.588.948-9.428 8.325-10.866 6.725z" fill="#E95D4E"/><path d="M64.995 122.228c-.036-1.567-6.004.775-6.004.775s1.996 6.618 4.786 13.812c-.01.014-.016.029-.025.042-.172.258-1.07 1.219-2.101 2.426-.368.781-.624 1.725.52 1.384 1.676-.5 4.502-2.933 4.771-4.544 0 0-1.867-10.523-1.947-13.895z" fill="#F8CCCC"/><path d="M57.568 51.062s-8.05 15.534-6.018 35.695c2.032 20.16 7.497 37.733 7.497 37.733l6.346-.809s.006-40.496 8.802-67.052l-16.627-5.567z" fill="#0B2739"/><path opacity=".2" d="M71.862 64.745l-.165-1.537-6.737-2.588s-8.937 25.475-2.08 63.382l2.51-.321s.007-32.983 6.472-58.936z" fill="#000"/><path d="M64.256 52.461s-3.564 33.481 12.467 48.494c13.412 12.559 25.629-9.435 29.259-16.952a3.632 3.632 0 00-4.685-4.927l-14.73 6.228s-1.243-30.28-11.848-38.136l-10.463 5.293z" fill="#0B2739"/><path d="M80.942 56.194c1.434-.175 2.843-.217 4.2-.086 31.078 3.002 10.214-4.753 10.214-4.753l-.069-.027c-.273.157-1.712-.082-4.857-.79-5.224-1.172-9.45-1.227-13.006-.663 1.364 1.762 2.527 3.93 3.518 6.32z" fill="#019DF4"/><path opacity=".2" d="M64.958 60.62c8.563-3.903 12.825-4.801 15.805-4.85-1.565-3.654-3.544-6.75-6.044-8.602l-10.465 5.293s-.03.286-.072.816l-6.617-2.215s-2.377 4.591-4.223 12.022c2.553.383 6.279-.03 11.616-2.464z" fill="#000"/><path d="M53.353 20.599s-1.91-1.865.597-4.256c2.507-2.39 6.414-1.874 7.8.149 1.386 2.023 4.485.606 4.922-.283.436-.888 6.27-12.886 17.144-.882l-3.888 9.12-16.742 8.792-4.136-10.377-5.697-2.263z" fill="#0B2739"/><path opacity=".2" d="M59.77 23.941s6.729 3.364 8.763-4.578c2.035-7.942 10.356-7.648 14.192-2.694 3.835 4.954-15.672 15.569-15.672 15.569L59.77 23.94z" fill="#000"/><path d="M59.434 31.66s.755-2.81-.797-5.574l-.667-1.607 2.946-4.521s2.688 5.762 3.996 9.528c0 0-.011 1.996-3.184 2.847-2.465.661-2.294-.673-2.294-.673z" fill="#F8CCCC"/><path opacity=".1" d="M62.709 29.881s-2.616-2.605-2.936-5.94l-.618 2.742.036.64c.791 2.308.246 4.339.246 4.339l3.272-1.781z" fill="#000"/><path d="M53.394 20.454s-.227 5.339 3.982 6.752a1.62 1.62 0 001.777-.525c.772-.969 1.834-2.723 1.298-4.597 0 0-.251-4.454-4.172-4.02-2.65.296-2.885 2.39-2.885 2.39z" fill="#F8CCCC"/><path opacity=".1" d="M53.355 20.599c.612.173 1.489.31 2.166-.137.701-.466.663-1.215 1.332-1.612.39-.23 1.08-.377 2.369.187l.124-1.003-4.05-.776-.654.776-1.288 2.565z" fill="#000"/><path d="M57.652 15.323c-2.204-.027-3.727 1.706-4.435 2.97 0 0-.461.794.137 2.306a9.752 9.752 0 001.36-.666c1.394-.831 1.712-1.485 2.7-1.567 1.165-.095 2.315.797 2.88 1.535 1.038 1.356.436 2.425 1.195 3.928.3.593.825 1.28 1.813 1.903.582.366 1.302-.2 1.072-.849l-.567-1.598s-.274-.66-.234-.838c.194-.88-.22-2.426-.418-3.297-.623-2.758-3.257-3.8-5.503-3.827z" fill="#0B2739"/><path d="M60.147 20.019c.068-.227.272-.64.596-.656.336-.02.614.396.698.715.17.654-.337 1.462-.724 1.441-.382-.023-.765-.86-.57-1.5zM26.777 37.937l-3.678-.174-4.357-4.668a.312.312 0 00-.51.35l.466.955-1.9-1.507a.837.837 0 00-1.148 1.21l4.177 4.703-1.116.963c-.339.292-.093.847.351.791a.411.411 0 00.096-.022l2.766-.98 5.278 1.786-.425-3.407z" fill="#F8CCCC"/><path d="M77.115 30.373c4.87-2.833 10.718-6.735 16.963-12.06a5.657 5.657 0 00.764-7.812l-1.046-1.324a1.74 1.74 0 00-2.555-.187C81.539 18.07 72.499 23.606 66.208 26.9c-7.608 3.981-13.309 5.793-15.07 6.33-5.996 1.83-11.846 2.828-17.72 3.335-2.523.218-4.855.29-7.023.248l-.597 5.3c3.934.665 8.601.861 14.162.375a90.952 90.952 0 0010.43-1.499c-2.134 5.707-4.392 14.52 1.026 16.501C63.742 62 67.343 45.353 90.43 50.54c17.993 4.04-19.773-7.217-13.315-20.166z" fill="#019DF4"/><path opacity=".1" d="M90.431 50.54c17.993 4.04-19.773-7.218-13.315-20.167 4.87-2.833 10.718-6.735 16.963-12.06a5.657 5.657 0 00.765-7.812l-1.047-1.324a1.74 1.74 0 00-2.555-.187c-.536.502-1.07.99-1.6 1.47-2.784 6.9-10.581 14.164-15.449 15.177-5.737 1.191 2.195 7.255-10.638 15.708-7.644 5.035-4.52 10.84-.744 14.71 6.165-3.306 12.967-8.807 27.62-5.516z" fill="#000"/><path d="M91.49 11.193l6.543-3.86 2.456-5.894a.313.313 0 01.601.15l-.105 1.056L102.24.57a.837.837 0 011.497.736l-2.275 5.861 1.38.513a.452.452 0 01-.15.876l-2.935.045-5.236 5.965-3.032-3.373z" fill="#F8CCCC"/><path opacity=".1" d="M62.964 30.565c9.475-4.214 16.448-10.2 21.234-15.472C77.237 20.67 70.942 24.42 66.206 26.9c-7.608 3.982-13.31 5.793-15.072 6.33-5.994 1.831-11.844 2.829-17.72 3.336a66.67 66.67 0 01-7.022.248c.002-.002 15.744 3.012 36.572-6.249zM83.817 93.253c-9.96-3.674-16.161-15.132-19.466-23.434.992 10.496 4.025 23.32 12.373 31.135 8.842 8.28 17.161 1.545 22.847-6.16-2.911-.08-8.058 1.296-15.754-1.541zM57.468 15.44c.014-.176-.108-.374-.472-.607a5.732 5.732 0 00-3.044 1.51c-1.44 1.373-1.422 2.572-1.146 3.345.037-1.173.399-1.879.8-2.327 1.275-1.417 3.809-1.19 3.862-1.922z" fill="#fff"/></svg>