<svg width="152" height="118" fill="none" xmlns="http://www.w3.org/2000/svg" viewBox="0 0 152 118"><path d="M116.742 83.565c.199-1.804.305-3.637.305-5.494 0-27.376-22.192-49.57-49.568-49.57-27.376 0-49.567 22.194-49.567 49.57 0 1.857.105 3.69.305 5.494h98.525z" fill="#FFCC69"/><path d="M79.797 61.236c3.074-1.374 6.261-2.862 9.52-3.715 1.72-.45 3.618-.81 5.217-.035.808.393 1.474 1.292 2.307 1.625 2.623 1.044 5.469-1.467 8.26-1.03 1.655.259 2.965 1.505 4.503 2.168 1.581.684 3.353.73 5.077.767 3.484.073 7.904.147 11.388.218H79.797v.002zM.042 74.534c3.222-1.441 6.564-3.002 9.98-3.895 1.803-.472 3.79-.849 5.468-.034.847.41 1.545 1.356 2.42 1.703 2.749 1.095 5.735-1.538 8.659-1.081 1.735.27 3.11 1.579 4.721 2.274 1.657.716 3.516.765 5.322.804 3.654.075 8.286.153 11.94.23H.041z" fill="#fff"/><path d="M111.645 76.457S61.23 78.544 60.67 97.92l52.132 5.747-1.157-27.209z" fill="#FBC28D"/><path d="M109.437 84.887s-53.814 4.205-55.494 21.861c-1.68 17.657 57.429 7.007 57.429 7.007l-1.935-28.868z" fill="#FBC28D"/><path opacity=".1" d="M100.383 85.902l.628-2.077c-21.25-2.105-35.133 9.123-39.14 12.891 10.197-6.183 27.819-9.368 38.512-10.814z" fill="#000"/><path d="M120.205 27.308l-3.674-2.57-5.031.247 1.079 4.824 7.626-2.501z" fill="#FBC28D"/><path d="M120.206 27.308l-7.627 2.501-6.162 29.981a8.124 8.124 0 002.354 7.519l3.806 3.626s-.377 1.802-.439 4.81c0 0-29.91 4.486-39.89 41.611h67.967c33.458-49.09-20.009-90.048-20.009-90.048z" fill="#963496"/><path d="M120.206 27.308l-2.408.789s28.214 43.229-1.946 68.456c-10.36 8.667-20.548 15.529-29.458 20.806h53.823c33.456-49.093-20.011-90.051-20.011-90.051z" fill="#A13EA1"/><path d="M128.819 48.434l-13.984 4.37c11.916 26.135 17.877 58.041 17.877 58.041h5.134c-1.033-31.204-7.145-56.501-9.027-62.41z" fill="#FBC28D"/><path d="M129.505 48.503a167.212 167.212 0 00-4.152-10.723c-1.363-3.172-3.793-5.795-6.917-7.266-1.825-.86-3.897-1.347-5.855-.705-2.089.684-3.209 2.653-3.803 4.77-.918 3.272-.5 6.782 1.065 9.797a194.855 194.855 0 014.333 8.917l15.329-4.79z" fill="#A13EA1"/><path d="M113.453 29.598a5.62 5.62 0 00-.874.211c-2.089.684-3.209 2.653-3.801 4.77-.918 3.272-.5 6.782 1.065 9.797a194.855 194.855 0 014.333 8.917l15.329-4.79c-.466-1.329-.92-2.578-1.356-3.741-17.294-3.463-14.969-14.117-14.696-15.164z" fill="#963496"/><path d="M133.694 117.356h17.596a.667.667 0 00.514-1.092l-.468-.567a3.344 3.344 0 00-2.171-1.193l-7.895-.671a3.846 3.846 0 01-3.427-2.988h-5.134l.985 6.511z" fill="#FBC28D"/><path d="M133.469 27.308s-22.208 5.774-29.121-8.054S108.358-.183 115.927.4c7.909.608 8.084 8.59 12.814 8.8 4.73.208 11.434-3.98 10.176 1.883-1.257 5.867-.837 7.542 4.82 8.8 5.653 1.255-3.417 6.367-10.268 7.425z" fill="#0B2739"/></svg>