<svg width="30" height="27" fill="none" xmlns="http://www.w3.org/2000/svg" viewBox="0 0 30 27"><path fill-rule="evenodd" clip-rule="evenodd" d="M22.508 19.354l-.84 2.64a.264.264 0 00.033.227.24.24 0 00.084.076.226.226 0 00.183.015l2.506-.874a.235.235 0 00.082-.05l.083-.078c.65-.608 4.668-4.363 4.935-4.641a1.48 1.48 0 00.427-1.036c0-.386-.139-.757-.388-1.04a1.417 1.417 0 00-.954-.483c-.283-.022-.701.038-1.086.444-.218.23-3.364 3.17-4.997 4.691a.252.252 0 00-.068.109zm.74.438l-.41 1.29 1.257-.438a2227.696 2227.696 0 004.046-3.793 177.126 177.126 0 00.824-.785l.017-.017.005-.005a.58.58 0 00.18-.41.67.67 0 00-.165-.443.599.599 0 00-.404-.204.48.48 0 00-.191.022.593.593 0 00-.243.166c-.239.252-3.272 3.085-4.915 4.617zm.963.811z" fill="#86888C"/><path fill-rule="evenodd" clip-rule="evenodd" d="M6.492.844l.002.001 5.483 3.838.937.941h-.02v19.953l-6.902-4.786-.004-.003c-.85-.564-1.261-.958-1.493-1.48-.24-.543-.315-1.284-.315-2.63V5.648h-.834v11.028c0 1.334.064 2.262.393 3.004.339.762.927 1.268 1.8 1.849l7.355 5.1v.134h-8.72c-1.014 0-2.063-.162-2.864-.78C.482 25.343 0 24.282 0 22.686V9.68c0-1.904.685-2.965 1.56-3.517.616-.389 1.285-.497 1.757-.527V2.52c-.055-.881.24-1.663.887-2.03C4.853.12 5.68.267 6.492.844zm7.236 25.92h9.074c.383 0 1.346 0 2.22-.506.45-.26.878-.654 1.19-1.242.31-.585.493-1.339.493-2.3V18.26l-2.429 2.384-1.46.503.552-1.62 3.337-3.067V9.737c0-1.593-.48-2.651-1.307-3.29-.8-.617-1.848-.779-2.86-.779h-8.81v21.096zm2.128-16.261c0-.243.187-.44.418-.44h6.655c.23 0 .417.197.417.44 0 .242-.187.44-.417.44h-6.655a.429.429 0 01-.418-.44zm.418 4.878a.429.429 0 00-.418.44c0 .242.187.439.418.439h6.655c.23 0 .417-.197.417-.44a.429.429 0 00-.417-.439h-6.655zm-.46 5.757c0-.243.187-.44.418-.44h4.193c.23 0 .417.197.417.44s-.186.44-.417.44h-4.193a.429.429 0 01-.417-.44zM6.86 5.737a.405.405 0 00-.576.135.454.454 0 00.128.607l4.632 3.098c.194.13.452.07.576-.135a.454.454 0 00-.129-.607L6.86 5.737zm-.656 10.237a.405.405 0 01.578-.125l3.61 2.505a.454.454 0 01.118.609.405.405 0 01-.578.125l-3.609-2.505a.454.454 0 01-.119-.609zm.656-5.447a.405.405 0 00-.576.136.454.454 0 00.128.606l4.632 3.099c.194.13.452.07.576-.136a.454.454 0 00-.129-.606L6.86 10.527z" fill="#86888C"/></svg>