<svg width="200" height="39" fill="none" xmlns="http://www.w3.org/2000/svg" viewBox="0 0 200 39"><mask id="a" maskUnits="userSpaceOnUse" x="65" y="8" width="135" height="23"><path fill-rule="evenodd" clip-rule="evenodd" d="M199.766 30.984V8.244H65.096v22.74h134.67z" fill="#fff"/></mask><g mask="url(#a)"><path fill-rule="evenodd" clip-rule="evenodd" d="M139.157 11.965h-3.215c-.268 0-.395.103-.395.364l.003 17.949c0 .26.127.364.395.364h3.213c.269 0 .397-.104.397-.364l-.003-17.949c0-.26-.126-.364-.395-.364zm-29.804 12.054c-.311 3.029-1.847 3.503-4.314 3.503h-.103c-2.467 0-4.004-.474-4.31-3.503-.098-.915-.173-1.671-.173-2.725 0-1.055.075-1.81.173-2.726.306-3.029 1.843-3.502 4.31-3.502h.103c2.467 0 4.003.473 4.314 3.502.096.915.171 1.67.171 2.726 0 1.054-.075 1.81-.171 2.725zm3.611 2.427c.387-1.27.602-2.732.602-5.152 0-2.419-.215-3.885-.602-5.153-.976-3.245-3.551-4.535-7.726-4.535h-.498c-4.175 0-6.75 1.29-7.731 4.535-.383 1.268-.6 2.734-.6 5.153 0 2.42.217 3.881.6 5.152.98 3.244 3.556 4.538 7.731 4.538h.498c4.175 0 6.75-1.294 7.726-4.538zm-27.32-14.84h-.971c-2.792 0-4.645.738-5.544 1.833h-.021c-.899-1.095-2.868-1.833-5.66-1.833h-.997c-3.148 0-5.727 1.09-6.763 3.321-.447.962-.592 2.251-.592 3.644v11.644c0 .256.15.427.413.427h3.17c.26 0 .41-.171.41-.427l.007-9.699c0-1.387.033-2.396.104-3.018.182-1.627 1.395-2.417 3.71-2.417h.264c2.312 0 3.583.79 3.764 2.417.07.622.105 1.63.105 3.018v9.702c0 .256.157.424.418.424h3.178c.261 0 .41-.201.41-.457l.004-9.669c0-1.387.033-2.396.104-3.018.181-1.627 1.45-2.417 3.764-2.417h.265c2.314 0 3.525.79 3.708 2.417.069.622.101 1.63.101 3.018v9.702c0 .265.155.424.417.424h3.177c.261 0 .41-.201.41-.457V18.57c0-1.393-.15-2.682-.594-3.644-1.034-2.232-3.617-3.321-6.762-3.321zm82.26 19.036c.274 0 .425-.148.425-.389V27.59c0-.24-.151-.389-.425-.389h-.427c-1.276 0-2.06-.306-2.539-.808-.635-.666-.766-1.745-.766-3.025v-8.094h3.536c.267 0 .4-.102.4-.363v-2.586c0-.26-.133-.361-.4-.361h-3.536V8.608c0-.26-.133-.365-.401-.365h-3.214c-.268 0-.391.105-.391.365v14.975c0 2.606.52 4.27 1.672 5.407 1.081 1.067 2.768 1.651 5.214 1.651h.852zm-19.784-8.377c.867.32 1.587.583 2.446.887 1.838.65 2.625 1.166 2.625 2.285 0 1.447-1.226 2.215-3.999 2.215h-.1c-1.565 0-3.358-.306-4.933-.808-.325-.104-.504.02-.504.346v2.385c0 .3.051.482.388.598 1.504.516 3.579.806 5.273.806h.129c4.926 0 7.597-2.18 7.597-5.707v-.051c0-1.36-.45-2.592-1.288-3.412-.821-.804-2.069-1.428-3.996-2.14-1.028-.381-1.826-.674-2.537-.934-1.602-.581-2.051-1.128-2.051-1.948 0-1.354 1.334-1.884 3.481-1.884h.163c1.239 0 2.739.178 4.559.507.337.06.527-.012.527-.36v-2.449c0-.323-.087-.412-.422-.484-1.183-.25-3.329-.511-4.534-.511h-.29c-2.513 0-4.378.464-5.621 1.543-1.01.875-1.685 2.199-1.685 3.781l-.001.114c0 1.465.511 2.648 1.387 3.453.817.752 1.919 1.227 3.386 1.768zm-25.851 8.377h3.481c.3 0 .431-.096.555-.326 2.254-4.223 5.704-11.44 5.939-17.984.008-.26-.101-.372-.441-.372l-3.244.001c-.377 0-.481.12-.502.456-.15 2.384-.658 5.153-1.396 7.625-.763 2.557-1.732 4.992-2.661 6.802-.93-1.81-1.9-4.245-2.661-6.802-.743-2.488-1.255-5.277-1.4-7.672-.022-.34-.205-.409-.538-.409h-3.265c-.346 0-.442.16-.416.509.458 6.412 2.461 11.392 5.937 17.86.122.228.307.312.612.312zm77.087-19.038h-2.153c-3.092 0-5.506 1.066-6.541 3.298-.447.963-.586 2.251-.586 3.643v11.733c0 .26.127.364.395.364h3.214c.268 0 .388-.104.388-.364v-9.815c0-1.386.029-2.396.1-3.02.182-1.625 1.174-2.392 3.486-2.392h1.711c.276 0 .396-.14.396-.406v-2.636c0-.271-.132-.405-.41-.405zm-16.711 12.33c0 1.402-.046 2.226-.557 2.81-.542.62-1.503.913-2.804.913h-.633c-2.402 0-3.799-.96-3.799-2.8 0-.842.333-1.592.85-2.036.61-.522 1.502-.777 3.031-.777h.339c1.158 0 2.479.115 3.573.401v1.49zm.335-11.564c-1.071-.458-2.698-.764-4.804-.764h-.256c-1.284 0-3.031.156-4.714.459-.284.05-.395.195-.395.52v2.39c0 .299.155.402.494.352 1.477-.22 3-.374 4.17-.374h.166c1.658 0 2.997.151 3.803.691.802.538 1.201 1.34 1.201 3.08v.514a20.513 20.513 0 00-4.024-.424h-.357c-2.238 0-4.339.538-5.68 1.783-1.029.957-1.707 2.398-1.707 4.238v.158c0 3.703 2.57 5.987 7.79 5.987h.929c2.052 0 4.001-.608 5.175-1.573 1.349-1.11 1.873-2.753 1.873-5.381v-5.352c0-3.657-1.435-5.349-3.664-6.304z" fill="#019DF4"/></g><path fill-rule="evenodd" clip-rule="evenodd" d="M10.43 4.863C8.009 4.9 3.538 6.09 1.496 14.39c-.89 3.617-1.234 7.387-.473 11.875.703 4.139 1.947 7.711 2.786 9.68.289.678.736 1.386 1.083 1.82.995 1.253 2.651 1.173 3.347.831.76-.371 1.632-1.269 1.316-3.318-.153-.99-.593-2.44-.84-3.244-.76-2.471-1.772-5.453-1.86-7.576-.118-2.841 1.007-3.212 1.755-3.377 1.256-.275 2.31 1.099 3.311 2.82 1.195 2.055 3.243 5.695 4.912 8.475 1.509 2.51 4.291 5.198 8.76 5.014 4.556-.188 7.913-1.918 9.643-7.364 1.294-4.075 2.177-7.12 3.597-10.237 1.633-3.586 3.81-5.504 5.644-4.919 1.703.545 2.128 2.2 2.149 4.636.018 2.154-.232 4.528-.427 6.272-.07.633-.199 1.906-.146 2.614.102 1.39.707 2.777 2.28 3 1.675.236 3.019-1.096 3.555-2.706.212-.636.393-1.607.49-2.296.492-3.48.62-5.82.398-9.38-.26-4.165-1.078-7.962-2.507-11.248C48.902 2.62 46.706.605 43.891.427 40.776.231 37.2 2.29 35.324 6.28c-1.729 3.68-3.112 7.458-3.952 9.386-.85 1.955-2.101 3.16-4.024 3.362-2.351.246-4.377-1.453-5.861-3.875-1.294-2.112-3.858-6.132-5.23-7.482-1.289-1.269-2.761-2.857-5.825-2.808z" fill="#019DF4"/></svg>