<svg width="53" height="39" fill="none" xmlns="http://www.w3.org/2000/svg" viewBox="0 0 53 39"><path fill-rule="evenodd" clip-rule="evenodd" d="M10.43 4.448c-2.422.038-6.893 1.227-8.935 9.528-.89 3.617-1.234 7.387-.473 11.874.703 4.139 1.947 7.712 2.786 9.68.289.679.736 1.386 1.083 1.821.995 1.252 2.651 1.172 3.347.83.76-.37 1.632-1.268 1.316-3.318-.153-.99-.593-2.439-.84-3.244-.76-2.47-1.772-5.452-1.86-7.576-.118-2.841 1.007-3.212 1.755-3.376 1.256-.275 2.31 1.098 3.311 2.82 1.195 2.054 3.243 5.695 4.912 8.475 1.509 2.51 4.291 5.197 8.76 5.013 4.556-.188 7.913-1.918 9.643-7.363 1.294-4.075 2.177-7.12 3.597-10.238 1.633-3.585 3.81-5.504 5.644-4.918 1.703.544 2.128 2.2 2.149 4.635.018 2.154-.232 4.528-.427 6.273-.07.633-.199 1.905-.146 2.613.102 1.39.707 2.778 2.28 3 1.675.236 3.019-1.096 3.555-2.706.212-.636.393-1.606.49-2.296.492-3.48.62-5.82.398-9.38-.26-4.164-1.078-7.962-2.507-11.247C48.902 2.205 46.706.19 43.891.013c-3.116-.197-6.692 1.861-8.568 5.853-1.729 3.68-3.112 7.457-3.952 9.385-.85 1.956-2.101 3.16-4.024 3.362-2.351.246-4.377-1.452-5.861-3.875-1.294-2.111-3.858-6.131-5.23-7.481-1.289-1.27-2.761-2.857-5.825-2.809z" fill="#019DF4"/></svg>