<svg width="163" height="118" fill="none" xmlns="http://www.w3.org/2000/svg" viewBox="0 0 163 118"><path d="M145.018 110.663c0 3.704-32.267 6.704-72.07 6.704-39.802 0-72.07-3.002-72.07-6.704 0-3.701 32.268-6.704 72.07-6.704 39.803 0 72.07 3.003 72.07 6.704z" fill="#0196ED"/><path d="M50.478 75.71c0 .682-.555 1.24-1.24 1.24h-4.355a2.08 2.08 0 00-2.078 2.078V80.5h.838v-1.47c0-.683.556-1.24 1.24-1.24h4.355a2.08 2.08 0 002.079-2.08v-1.657h-.839v1.658z" fill="#22445D"/><path d="M43.223 79.418a1.082 1.082 0 100 2.165 1.082 1.082 0 000-2.165zM59.757 58.366L52.273 8.923a5.86 5.86 0 00-5.811-5.11H25.135c-3.518 0-6.244 3.08-5.818 6.573l6.946 48.288c.366 2.99 1.816 6.01 4.157 8.643l2.351 2.644a13.684 13.684 0 0010.224 4.59h25.126l-4.58-6.802c-2.398-2.898-3.738-6.208-3.784-9.383z" fill="#0B2739"/><path d="M63.29 58.366L55.806 8.923a5.862 5.862 0 00-5.811-5.11H28.67c-3.518 0-6.244 3.08-5.817 6.573l6.945 48.288c.366 2.99 1.816 6.01 4.157 8.643l3.177 3.572c2.07 2.328 2.557 1.737 5.672 1.737l29.91 1.923-5.64-6.802c-2.398-2.896-3.738-6.206-3.784-9.381zM31.996 106.391c0 2.288.866 4.142 1.933 4.142h3.483v-8.283h-3.483c-1.067-.002-1.933 1.854-1.933 4.141z" fill="#22445D"/><path d="M37.413 102.246c-1.067 0-1.932 1.854-1.932 4.142 0 2.289.865 4.141 1.932 4.141 1.068 0 1.933-1.854 1.933-4.141 0-2.286-.865-4.142-1.933-4.142z" fill="#106DA1"/><path d="M37.41 103.484c-.262 0-.493.462-.639 1.174a8.443 8.443 0 00-.158 1.731c0 .408.021.786.063 1.132.127 1.038.4 1.772.734 1.772.377 0 .703-.965.787-2.253.01-.21.02-.431.02-.649 0-.87-.104-1.658-.282-2.191-.136-.443-.325-.716-.525-.716z" fill="#0B2739"/><path d="M59.001 74.549h-4.615l.01 23.293-16.465 6.356-1.163.462a8.457 8.457 0 00-.159 1.731c0 .408.021.787.063 1.132l1.52-.483 18.5-5.861 19.423 6.512.661-2.59-17.787-7.257L59 74.549z" fill="#B6B7B7"/><path d="M58.233 98.36H55.16v8.283h3.073V98.36z" fill="#B6B7B7"/><path d="M83.257 67.642H42.526c-2.324 0-3.862 2.408-2.89 4.517.07.156.146.313.223.469h46.017l.034-.048c1.45-2.08-.117-4.938-2.653-4.938z" fill="#22445D"/><path d="M39.87 72.648c.582 1.186 1.822 1.904 3.144 1.904h41.315a17.747 17.747 0 001.548-1.923H39.86a.086.086 0 00.01.019z" fill="#0B2739"/><path d="M73.106 106.388c0 2.289.865 4.143 1.932 4.143h3.483v-8.283h-3.483c-1.067-.002-1.932 1.854-1.932 4.14z" fill="#22445D"/><path d="M78.519 102.246c-1.068 0-1.933 1.854-1.933 4.142 0 2.289.865 4.141 1.933 4.141 1.067 0 1.933-1.854 1.933-4.141 0-2.286-.866-4.142-1.933-4.142z" fill="#106DA1"/><path d="M78.522 103.483c-.442 0-.8 1.302-.8 2.906 0 1.607.359 2.907.8 2.907.44 0 .799-1.302.799-2.907 0-1.606-.358-2.906-.8-2.906z" fill="#0B2739"/><path d="M57.747 102.246h-2.54c-.7 0-1.266.566-1.266 1.265v5.753c0 .699.566 1.265 1.265 1.265h2.54c.7 0 1.266-.566 1.266-1.265v-5.753c0-.699-.566-1.265-1.265-1.265z" fill="#22445D"/><path d="M59.076 9.278a.617.617 0 00-.162-.34c.17-3.42-1.894-6.495-4.178-7.812a.373.373 0 00-.341-.025c-2.477-.932-5.025.033-6.536 2.967-.757 1.473-1.044 3.262-1.964 4.619-.936 1.385-2.06 1.958-3.314 2.603-1.334.686-2.318 1.273-3.07 2.987-.842 1.927-.91 3.313-2.376 4.782-.678.68-1.37 1.138-1.84 2.114-.588 1.217-.748 2.802-.448 4.19.47 2.16 2.035 2.967 2.977 4.677.837 1.513 1.01 2.616 2.451 3.088 1.615.529 3.51-.025 5.092-.462 1.585-.439 2.842-.77 4.477-.439 1.117.225 2.201.737 3.337.793.677.033 1.234.025 1.858-.368.225-.142.43-.327.612-.558.522-.755 1.194-1.144 2.02-1.174.956-.611 1.234-.973 1.326-2.436.064-1.034-.063-2.166-.262-3.32 1.67-5.32 1.331-10.208.34-15.886z" fill="#0B2739"/><path d="M99.838 106.8c-1.088-.649-3.154-3.982-3.584-4.396-3.506-3.369-4.303-36.988-10.25-40.723-3.807-2.392-10.274-.268-9.958 5.395.404 7.224 15.439 28.503 15.684 33.228.027.531-.998 1.311-.645 2.597.285 1.04 1.361 1.217 1.78 1.656 4.007 4.201 9.325 3.697 9.389 3.279.063-.418-1.858-.703-2.416-1.036z" fill="#D2A99E"/><path d="M101.218 107.656a2.589 2.589 0 01-1.029.052c-1.211-.177-2.53-.76-3.57-1.355-1.012-.58-1.607-2.469-2.548-3.1-.786-.526-2.23-1.103-3.173-1.13-.118.279-1.225 2.397 1.771 3.213 1.142.312 3.754 3.096 5.085 3.547 1.09.371 3.073.845 4.109.127.373-.258.635-.684.469-1.219-.063-.204-.5.073-1.114-.135z" fill="#106DA1"/><path d="M100.651 106.939c-.056.183-.244.324-.616.27-1.21-.179-2.056-.431-3.06-1.078-.98-.63-2.115-2.748-3.057-3.376-.787-.527-1.898-1.511-2.84-1.536-.119.281-1.559 2.805 1.44 3.622 1.142.31 3.753 3.096 5.085 3.548 1.09.368 3.343.726 4.39.021.137-.094.408-.394.324-.674-.062-.206-1.05-.589-1.666-.797z" fill="#22445D"/><path d="M92.914 53.96c-6.985-2.698-29.737-3.863-36.345-2.39-4.26.949-4.771 14.947.666 14.858 5.436-.09 31.162-2.782 37.76-4.278 3.102-.701 4.897-5.493-2.081-8.19z" fill="#F1C8B9"/><path d="M62.003 51.059c-4.93.921-5.522 14.53.772 14.443 2.965-.041 13.938-.92 21.709-1.614-2.41-5.131-.528-10.54 2.867-13.075-9.39-.83-20.748-.616-25.348.245z" fill="#0196ED"/><path d="M84.427 54.466c-2.969-.262-18.534-.267-23.52.404a8 8 0 01-2.184.006c-1.359 4.313-.262 10.686 4.126 10.626 3.015-.042 13.624-1.682 21.526-2.374-1.52-3.184-1.11-6.018.052-8.662z" fill="#106DA1"/><path d="M84.72 60.787c-6.398-3.483-28.68-7.292-35.494-6.606-12.705 1.28-12.004 13.398 1.7 14.785 5.393.548 27.502.874 34.307.165 3.203-.335 5.88-4.863-.514-8.344z" fill="#D2A99E"/><path d="M97.05 56.583c-2.313-3.502-8.565-3.816-10.423 1.45-2.37 6.719 2.326 31.326.761 35.715-.175.49-1.334.846-1.519 2.14-.15 1.047.693 1.582.88 2.127 1.804 5.218 6.48 6.61 6.69 6.252.212-.36-1.3-1.285-1.648-1.785-.674-.969-1.165-4.723-1.376-5.251-1.693-4.282 10.25-35.176 6.636-40.648z" fill="#F1C8B9"/><path d="M92.987 104.008a2.49 2.49 0 01-.972-.318c-1.046-.6-2.028-1.617-2.744-2.545-.697-.905-.468-2.888-1.08-3.812-.512-.774-1.609-1.83-2.468-2.19-.224.218-2.12 1.805.314 3.64.928.7 2.197 4.241 3.242 5.14.855.734 2.493 1.889 3.747 1.587.452-.11.868-.414.934-.976.026-.214-.49-.112-.973-.526z" fill="#106DA1"/><path d="M92.877 103.304c-.322-.035-2.357-.859-3.108-2.209-.73-1.315-.905-3.358-1.517-4.284-.512-.774-1.306-1.973-2.168-2.333-.225.219-2.42 1.95.015 3.785.928.7 2.197 4.24 3.241 5.139.855.735 2.792 1.875 4.051 1.59.165-.038.54-.223.577-.516.029-.215-.608-.758-1.09-1.172z" fill="#22445D"/><path d="M61.505 20.845c-1.8-1.527-3.664 2.896-1.985 6.825 2.588 6.054 5.097 8.037 8.487 11.849 2.919 3.283 6.131-.71 3.81-4.149-3.586-5.312-7.108-11.805-10.312-14.525z" fill="#F1C8B9"/><path d="M91.66 38.974c-6.33-.472-17.732-2.956-19.09-3.272-2.861-.67-3.714 4.635-3.714 4.635 6.77 3.144 20.481.953 22.787.953 1.95-.002.713-2.264.016-2.316z" fill="#F1C8B9"/><path d="M97.507 37.205c-.801-.064-1.948-.445-2.89.329-1.72 1.415-4.68 1.248-4.68 1.248l.23 2.674s1.66-.05 2.519.855c.861.907 2.501-.616 3.081-.674.483-.05-.846-.957-2.143-.218.593-.396 1.245-.88 2.643-1.02 1.25-.125 1.194-1.508 1.723-2.38.214-.352-.042-.778-.483-.814z" fill="#F1C8B9"/><path d="M54.46 27.677l2.08-.287L55 23.918l-.54 3.76z" fill="#E01927"/><path d="M46.808 69.115c2.888.246 16.206.408 23.981.275 2.861-1.71 3.41-6.007 4.278-7.539 2.337-4.117 4.515-3.008 6.592-4.167-12.18-2.842-29.034-3.1-33.726-3.1-9.712.002-12.184 13.588-1.125 14.531z" fill="#019DF4"/><path d="M58.674 35.135c1.663-4.84 4.151-6.165 1.956-9.127-1.808-2.435.834-5.219.834-5.219-1.158-.634-2.199-1.125-2.199-1.125s.306-2.329-2.222-.583c-1.155.784-3.127 1.246-4.569.01-3.196-2.713-3.175-.507-3.175-.507s-1.124.264-2.389.636c0 0 1.996 3.284-.301 5.285-2.766 2.414-.61 5.042-1.061 10.761-.45 5.708-5.618 12.778-6.321 23.62 23.132-1.286 29.066-9.117 29.066-9.117-3.949-1.486-11.273-9.792-9.619-14.634z" fill="#0196ED"/><path d="M61.246 43.962c-1.157-.06-2.289-.033-3.42-.04a3.428 3.428 0 01-2.304.87c-1.856 0-3.839-1.685-3.67-3.67.004-.058.019-.116.025-.175-.142-.601-.158-1.217.019-1.764.12-.375.29-.693.482-.986a21.18 21.18 0 011.313-3.691c.629-1.332 1.328-1.005 2.345-1.854-2.742.304-4.373-1.328-5.626-1.363-2.289-.065-4.182-1.282-5.23-3.181.068 1.762.62 3.982.368 7.157-.45 5.707-5.618 12.777-6.321 23.62 7.438-.414 13.089-1.507 17.346-2.795-3.104.019-6.438-.54-8.235-3.15-.737-1.07-.614-2.626 0-3.705 1.209-2.133 2.91-2.316 5.103-2.797 2.287-.503 5.165-1.04 7.262-2.064.318-.156.633-.26.942-.327-.029-.037-.058-.07-.087-.108-.102.009-.204.03-.312.023z" fill="#106DA1"/><path d="M48.234 20.262c-.976-2.507-4.211-.285-4.405 4.168-.295 6.858.71 10.474 2.135 15.985 1.227 4.746 5.97 2.626 5.358-1.85-.943-6.907-1.353-13.84-3.088-18.303z" fill="#F1C8B9"/><path d="M70.05 37.605c-6.328.558-18.157-.372-19.555-.493-2.948-.254-2.917 5.778-2.917 5.778 7.276 2.332 21.593-1.696 23.085-2.863 1.494-1.167.083-2.484-.614-2.422z" fill="#F1C8B9"/><path d="M73.932 38.004c-1.403.088-2.137-.326-2.795-.655 1.415.578 2.557-.633 2.07-.603-.584.035-2.486-1.336-3.164-.207-.678 1.128-2.324 1.357-2.324 1.357l.308 3.13s2.852-.879 4.812.363c1.076.68 2.133.073 2.911-.135.427-.112.6-.62.323-.965-.68-.853-.885-2.362-2.141-2.285zM56.86 15.386v3.943s1.06 1.946 0 2.158c-2.33.466-5.692-3.169-5.692-3.169V13.03l5.693 2.357z" fill="#F1C8B9"/><path d="M51.168 16.081v-3.008s2.896 2.765 5.693 2.923c0 0-3.369 1.635-5.693.085z" fill="#D2A99E"/><path d="M58.26 3.579s2.097 4.25 2.622 8.212c.37 2.813-4.778 6.523-8.97 2.563-4.193-3.96-3.03-10.018-3.03-10.018l9.378-.757z" fill="#F1C8B9"/><path d="M60.28 3.431c-.285-.179-.66-.187-.932-.364-.855-.55-.502-.81-.995-1.355-.428-.47-.832-.776-1.425-.998-1.53-.568-3.291-.348-4.835.025-.483.116-.548.566-.364.911-1.526.304-3.184 1.756-3.835 2.744-1.29 1.962-1.454 5.252-.142 7.258 1.032 1.575 2.972 2.863 4.014.776.795-1.594.664-3.078.537-4.786-.046-.626-.065-1.157.002-1.637.826-1.126 1.95-1.916 3.212-1.923.319.319.59.795.885 1.113.447.479.982.856 1.585 1.11.934.388 2.228.47 2.876-.47.58-.848.241-1.892-.583-2.404z" fill="#0B2739"/><path d="M52.712 8.08s-1.687-.787-2.022.567c-.335 1.355.894 2.154 1.546 1.906.65-.245.87-1.906.476-2.474z" fill="#F1C8B9"/><path d="M43.796 42.861H26.574l.115 1.73 16.235-.053c1.806 0 3.92 1.708 2.767 5.447l-5.984 22.68h1.788l6.849-23.747c.88-3.036-1.394-6.057-4.548-6.057z" fill="#0B2739"/><path d="M48.238 42.862h-4.443c3.157 0 5.429 3.02 4.547 6.056l-6.85 23.747h4.164l7.128-23.747c.884-3.035-1.39-6.056-4.546-6.056z" fill="#22445D"/><path d="M64.906 43.86h57.588a1.496 1.496 0 000-2.992h-57.37l-.218 2.992z" fill="#E25D4E"/><path d="M15.597 43.86H64.91l.218-2.992h-49.53a1.496 1.496 0 000 2.992z" fill="#E25D4E"/><path d="M52.734 43.86H30.939c-3.705 0-6.72 3.035-6.72 6.768v59.902h1.548V50.628c0-2.871 2.32-5.208 5.17-5.208h21.795c2.852 0 5.17 2.337 5.17 5.208v59.902h1.548V50.628c.002-3.733-3.01-6.768-6.716-6.768z" fill="#B6B7B7"/><path d="M109.73 43.86H87.935c-3.705 0-6.72 3.035-6.72 6.768v59.902h1.548V50.628c0-2.871 2.32-5.208 5.17-5.208h21.795c2.851 0 5.17 2.337 5.17 5.208v59.902h1.548V50.628c.003-3.733-3.012-6.768-6.716-6.768z" fill="#D3D4D3"/><path d="M105.333 17.984H77.23c-.943 0-1.785.764-1.883 1.704l-1.846 17.615c-.097.938.585 1.702 1.528 1.702h28.103c.94 0 1.783-.764 1.883-1.702l1.846-17.615c.097-.94-.587-1.704-1.528-1.704z" fill="#0B2739"/><path d="M57.102 39.016c0 .027-.004.054-.004.081 0 1.024.83 1.852 1.851 1.852h29.469c1.023 0 1.851-.83 1.851-1.852 0-.027-.002-.054-.004-.08H57.102zM105.755 17.984H77.652c-.943 0-1.783.764-1.883 1.704l-1.846 17.615c-.097.938.585 1.702 1.528 1.702h28.103c.942 0 1.785-.764 1.883-1.702l1.845-17.615c.098-.94-.584-1.704-1.527-1.704z" fill="#22445D"/><path d="M73.485 39.016c0 .027-.004.054-.004.081 0 1.024.83 1.852 1.851 1.852h27.831a1.852 1.852 0 001.848-1.933H73.485z" fill="#0B2739"/><path d="M112.606 36.1h2.403c-2.13-4.907-4.502-6.596-4.502-6.596s.368 2.36 2.07 5.037c-1.24-.974-3.139-1.032-3.139-1.032s1.269 1.933 3.168 2.59z" fill="#5CAF15"/><path d="M121.946 33.08c-.612.243-2.755 1.554-2.834 1.606 1.432-2.447 2.368-5.112 2.368-5.112s-1.848 1.633-3.331 4.122c-.248.414-.807 1.054-.807 1.044 1.978-4.032 3.166-8.57 3.166-8.57s-1.406.76-2.769 3.65c-.104-3.538-.982-5.107-.982-5.107s-.689 2.976-.614 6.63c.021 1.048-1.115-3.415-1.115-3.415s-.406 1.481-.402 3.491c-.969-2.134-3.653-5.565-3.653-5.565s2.355 5.299 3.822 7.812c-.739-.91-3.402-4.96-3.402-4.96s.314 5.252 2.965 7.395h4.852c.431-.152.886-.36 1.334-.643a6.871 6.871 0 001.868-1.785c.395-.552.57-.953.57-.953s-.426.116-1.036.36z" fill="#3C7521"/><path d="M119.973 36.1h-1.465c1.3-2.99 2.744-4.02 2.744-4.02s-.225 1.44-1.263 3.072c.758-.593 1.914-.629 1.914-.629s-.771 1.176-1.93 1.578z" fill="#5CAF15"/><path d="M118.824 35.89l-.787.815c-1.175-2.528-1.044-3.953-1.044-3.953s.78.992 1.244 2.555c.033-.778.632-1.444.632-1.444s.325 1.14-.045 2.026z" fill="#3C7521"/><path d="M110.61 40.772h11.876c.554 0 1.045-.358 1.211-.887l.841-2.648a1.272 1.272 0 00-1.211-1.657h-13.56a1.27 1.27 0 00-1.21 1.657l.84 2.648c.169.527.66.887 1.213.887z" fill="#B6B7B7"/><path d="M131.334 79.86c0 .682.556 1.24 1.24 1.24h4.355a2.08 2.08 0 012.079 2.078v1.471h-.839v-1.47c0-.683-.555-1.241-1.24-1.241h-4.355a2.08 2.08 0 01-2.078-2.079v-1.658h.838v1.658z" fill="#22445D"/><path d="M138.59 83.569a1.083 1.083 0 11-.001 2.165 1.083 1.083 0 01.001-2.165zM122.056 62.515l7.484-49.442a5.86 5.86 0 015.811-5.11h21.327c3.518 0 6.244 3.08 5.817 6.573l-6.945 48.287c-.366 2.99-1.817 6.011-4.157 8.643l-2.351 2.645a13.685 13.685 0 01-10.225 4.59h-25.126l4.58-6.802c2.399-2.898 3.739-6.209 3.785-9.384z" fill="#0B2739"/><path d="M118.522 62.515l7.485-49.442a5.861 5.861 0 015.811-5.11h21.324c3.519 0 6.244 3.08 5.818 6.573l-6.945 48.287c-.367 2.99-1.817 6.011-4.157 8.643l-3.178 3.573c-2.07 2.328-2.557 1.737-5.671 1.737l-29.91 1.923 5.639-6.802c2.399-2.896 3.739-6.207 3.784-9.382zM149.816 110.539c0 2.289-.865 4.143-1.933 4.143H144.4v-8.283h3.483c1.068-.002 1.933 1.854 1.933 4.14z" fill="#22445D"/><path d="M144.399 106.397c1.067 0 1.933 1.854 1.933 4.142 0 2.289-.866 4.141-1.933 4.141-1.067 0-1.933-1.854-1.933-4.141 0-2.286.866-4.142 1.933-4.142z" fill="#106DA1"/><path d="M122.811 78.7h4.615l-.01 23.293 16.466 6.356 1.163.462c.104.483.158 1.08.158 1.731 0 .408-.021.786-.062 1.132l-1.521-.483-18.499-5.861-19.423 6.512-.662-2.59 17.788-7.257-.013-23.295z" fill="#B6B7B7"/><path d="M123.579 102.51h3.073v8.283h-3.073v-8.283z" fill="#B6B7B7"/><path d="M141.943 76.798c-.583 1.186-1.823 1.904-3.144 1.904H97.483a17.747 17.747 0 01-1.548-1.923h46.018c-.002.006-.006.013-.01.019z" fill="#0B2739"/><path d="M108.707 110.538c0 2.289-.866 4.143-1.933 4.143h-3.483v-8.283h3.483c1.067-.002 1.933 1.854 1.933 4.14z" fill="#22445D"/><path d="M103.294 106.397c1.067 0 1.933 1.854 1.933 4.142 0 2.289-.866 4.141-1.933 4.141-1.068 0-1.933-1.854-1.933-4.141 0-2.286.865-4.142 1.933-4.142z" fill="#106DA1"/><path d="M103.291 107.633c.441 0 .799 1.302.799 2.906 0 1.606-.358 2.907-.799 2.907-.441 0-.799-1.303-.799-2.907 0-1.606.358-2.906.799-2.906z" fill="#0B2739"/><path d="M124.066 106.397h2.54c.699 0 1.265.566 1.265 1.265v5.753c0 .699-.566 1.265-1.265 1.265h-2.54c-.7 0-1.265-.566-1.265-1.265v-5.753c0-.699.565-1.265 1.265-1.265z" fill="#22445D"/><path d="M138.017 47.01h17.221l-.114 1.73-16.235-.053c-1.806 0-3.92 1.709-2.768 5.447l5.984 22.68h-1.787l-6.85-23.747c-.88-3.036 1.395-6.057 4.549-6.057z" fill="#0B2739"/><path d="M133.575 47.01h4.442c-3.156 0-5.428 3.021-4.546 6.057l6.849 23.746h-4.163l-7.128-23.746c-.885-3.036 1.39-6.057 4.546-6.057z" fill="#22445D"/><path d="M130.181 12.32c.513-3.125 4.501-5.802 7.094-3.479 1.168 1.045 2.095 3.294 2.095 3.294s5.388-2.007 6.8 3.867c1.412 5.877 3.671 5.57 4.415 10.426.779 5.086-4.242 6.057-2.768 16.657 1.474 10.603-21.502 10.386-22.963-3.706-.615-5.926-3.609-14.38.331-21.69 1.26-2.341 4.545-2.611 4.996-5.368z" fill="#E75D4E"/><path d="M105.526 58.934c-6.797 5.622-1.056 43.514-4.222 47.285-1.648 1.963 3.82 1.542 3.744.989-.675-4.948 14.625-37.155 11.693-43.907-2.216-5.099-9.055-6.15-11.215-4.367z" fill="#D7AEA3"/><path d="M103.193 105.111c-1.286-.491-1.738-1.311-1.738-1.311s-2.724 2.815-5.287 2.964c-2.564.149-1.993 1.484-1.993 1.484 1.766 1.369 5.769.925 7.046.887 1.276-.037 4.816-1.343 4.816-1.343.967-1.976-.308-3.375-.308-3.375s-1.249 1.184-2.536.694z" fill="#E75D4E"/><path d="M111.18 64.302c-6.8 5.62-1.079 43.514-4.248 47.283-1.649 1.961 3.819 1.544 3.744.989-.671-4.946 14.645-37.15 11.716-43.902-2.215-5.098-9.055-6.153-11.212-4.37z" fill="#F1C4B5"/><path d="M108.924 110c-1.377.007-2.09-.593-2.09-.593s-1.521 3.615-3.857 4.682c-2.332 1.066-1.318 2.108-1.318 2.108 2.138.64 5.705-1.226 6.885-1.723 1.177-.495 4.001-2.998 4.001-2.998.187-2.195-1.503-3.037-1.503-3.037s-.741 1.554-2.118 1.561z" fill="#E75D4E"/><path d="M141.564 51.286c-1.248.375-7.264 3.402-14.917 1.246-.646 3.207-16.453 1.84-21.505 6.736 6.915-1.032 5.228 9.875 7.811 15.947l.173.394c.108.23 1.829 2.31 2.166 2.466.099.055.21.099.318.136 7.27 2.577 1.502 4.757 4.039 9.5 1.665 3.122 8.654 7.808 13.703 7.048-2.803-9.214 12.155-14.768 13.604-22.357 1.375-7.216-2.54-14.706-4.514-18.995-.377-.844-.686-1.557-.878-2.121z" fill="#fff"/><path d="M144.864 58.812c-.84-2.084-2.506-5.72-3.182-7.19-3.102 5.44-5.704 5.382-12.384 9.78-4.048 2.663 8.667 5.163 5.336 11.87-4.802 9.68-8.21 14.505-8.818 10.731-.529-3.234 1.137-9.26 4.013-13.016-.954.394-9.127 6.358-14.769.53-1.229-1.268-3.896-6.71-4.458-6.866.791 3.564 1.183 7.753 2.348 10.566.056.127.698 2.23 2.657 2.996 7.184 2.807 1.502 4.758 4.042 9.5 1.665 3.122 8.654 7.808 13.703 7.049-2.803-9.214 12.155-14.769 13.604-22.358.695-3.647.037-7.359-1.035-10.699" fill="#E9EAE8"/><path d="M130.507 50.42c.01-.02.022-.038.028-.069l-.034.062.006.006z" fill="#FF505C"/><path d="M122.712 27.935c1.22-1.913 7.128-.09 7.057 1.371-.084 1.74-4.74 13.9-6.201 17.082-1.7 3.697-6.958 1.346-5.892-2.208 1.634-5.486 2.861-12.84 5.036-16.245z" fill="#F1C4B5"/><path d="M127.31 26.85c.871.236 3.519.931 5.024 1.086a1.21 1.21 0 001.233-.7c.364-.816.772-2.355.315-4.727-.411-2.128 1.106-2.196 2.07-2.038.454.075 2.333.773 2.469 1.216.398 1.318-.334 4.007-.745 6.863a1.225 1.225 0 00.68 1.287c1.159.55 3.235 1.607 4.554 2.71.615.516.575 1.47-.077 1.936-1.517 1.082-4.316 2.825-6.408 2.667-6.39-.487-8.855-2.723-10.397-3.867-.779-.577-1.273-5.235.337-6.296a1.15 1.15 0 01.945-.136z" fill="#F1C4B5"/><path d="M124.204 32.442c1.783-1.417.581-2.608-.089-4.295-.284-.717.188-1.51.927-1.55a6.6 6.6 0 011.393.061c.593.093.986.682.884 1.3-.272 1.628-.34 4.834 2.914 6.193 5.478 2.285 7.44-3.985 11.048-2.618 2.426.918 3.31 2.782 3.609 3.716.111.35.053.738-.163 1.03-1.749 2.387-5.235 2.062-6.764 1.783-.482-.09-.961.176-1.162.645-1.999 4.689 2.642 8.547 4.002 9.859.96.927 1.396 3.799 1.578 5.597.075.73-.531 1.337-1.223 1.222-2.871-.477-7.011-.282-9.971.543-2.521.704-5.74.39-7.332.161-.577-.084-.985-.632-.917-1.24.445-3.96 3.046-8.24 2.061-12.638-1.073-4.8-4.502-6.823-.795-9.769z" fill="#fff"/><path d="M124.019 32.52c-1.065 2.105-1.294 4.006.319 6.016.775.967 3.828 1.65 3.828 1.65s.973.89 4.131 1.693c-.068.096-6.532.093-6.532 4.388 0 7.688 2.895 9.574 5.71 9.654-.006.007-1.529.726-1.536.732-3.287 1.836-7.22-.725-7.22-.725 0-4.258 3.337-8.916 2.212-13.717-1.112-4.76-4.425-6.54-.912-9.692z" fill="#E9EAE8"/><path d="M120.703 27.485c.389 4.53 2.969 15.348 3.198 16.483.479 2.394-6.035 2.494-6.035 2.494-2.734-5.806.618-15.984.535-18.717-.046-1.597 2.252-.837 2.302-.26z" fill="#F1C4B5"/><path d="M117.719 20.936c1.53-1.198 1.87.837 1.87.837.547-.475-.751-3.588.117-3.75.494-.093.976 3.232 1.143 4.525 0 .155.019.323.065.509l-.065-.509c-.006-1.014.81-1.3.819-.974.046 1.483.819 2.531-.272 3.551-.837.785-.615 3.247-.615 3.247l-2.45.242c-.015-.518-.33-3.101-1.449-4.537-.979-1.253-.368-2.202.837-3.142z" fill="#F1C4B5"/><path d="M120.849 22.55l.065.508a2.142 2.142 0 01-.065-.509zM138.253 35.43c1.402-2.637 6.948-1.582 6.624 3.051-.43 6.144-3.343 10.306-5.188 14.005-1.415 2.841-6.3 1.312-5.771-1.528.933-4.987 2.07-11.273 4.335-15.529z" fill="#F1C4B5"/><path d="M127.45 36.666c2.97 4.261 10.75 10.78 11.581 11.583 1.752 1.694-3.393 5.434-3.393 5.434-5.54-3.213-7.78-11.754-10.159-15.454-.003.003 1.644-2.031 1.971-1.563z" fill="#F1C4B5"/><path d="M121.869 22.945l3.228.04a1.096 1.096 0 011.079 1.11l-.112 8.938a1.095 1.095 0 01-1.106 1.083l-3.228-.04a1.094 1.094 0 01-1.079-1.11l.111-8.939a1.098 1.098 0 011.107-1.082z" fill="#50535A"/><path d="M121.529 22.941l3.228.04a1.092 1.092 0 011.079 1.11l-.111 8.938a1.094 1.094 0 01-1.107 1.083l-3.228-.04a1.094 1.094 0 01-1.079-1.11l.112-8.939a1.09 1.09 0 011.106-1.082z" fill="#313235"/><path d="M123.125 24.48c.361.003.652.3.648.667a.654.654 0 11-1.31-.019.652.652 0 01.662-.648z" fill="#fff"/><path d="M123.122 24.605a.533.533 0 01-.015 1.064.53.53 0 01.015-1.064z" fill="#313235"/><path d="M123.108 25.668a.342.342 0 11-.346.338.343.343 0 01.346-.338z" fill="#fff"/><path d="M123.106 25.826c.102 0 .182.083.179.185a.179.179 0 01-.185.18.179.179 0 01-.178-.186c0-.099.083-.18.184-.18z" fill="#313235"/><path d="M123.117 24.906a.145.145 0 11-.259.13.148.148 0 01.065-.195.144.144 0 01.194.065zM123.157 25.232a.063.063 0 01-.089 0 .063.063 0 010-.09.063.063 0 01.089 0c.025.022.025.062 0 .09z" fill="#fff"/><path d="M122.483 31.694c1.184 1.094 3.498 2.961 2.997 1.87-.645-1.415.501-1.991.699-1.6.182.36-.238.449.315 1.578.556 1.138.571 1.417.51 1.988-.059.567.855 1.696.855 1.696l-1.77 1.473s-2.333-1.619-3.322-3.582c-.988-1.96-.154-1.401-.605-2.45-.451-1.051.133-1.147.321-.974zM137.321 22.84c.216-.136.426-.276.63-.424 1.542-1.126 2.988-2.525 2.938-4.575-.034-1.454-.825-2.599-1.841-3.687-1.085-1.132-1.52-1.678-2.976-2.27-1.276-.518-2.752-.193-3.868.549-1.35.899-1.928 2.428-2.252 3.963-.229 1.076-.424 2.165-.414 3.266.009 1.1.238 2.217.806 3.157.494.819 1.363 1.523 2.358 1.498 1.619-.04 3.238-.614 4.619-1.477z" fill="#F1C4B5"/><path d="M141.753 9.7c2.846.604 7.375-2.699 7.848 3.79.402 5.541 3.711 6.084 5.488 4.456.203-.186.519.028.407.279-.349.806-1.041 1.774-2.41 2.205-.568.18-.525 1.02.062 1.138.303.062.627.087.964.056a.587.587 0 01.618.757c-.454 1.454-1.993 3.886-7.153 2-7.057-2.577-9.266-8.401-9.102-11.106l.003-.04c.04-.313.547-4.112 3.275-3.536z" fill="#B84642"/><path d="M144.953 29.765c-.081-1.678-.618-2.754-.943-4.305-.306-1.399-.361-3.57-.404-4.922-.115-4.276-1.474-8.497-4.808-8.752a6.801 6.801 0 01-1.984-.496c-.973-.43-3.065-.099-2.907 1.991.062.835.386 1.588.788 2.187.401.598.88 1.073 1.335 1.581.716.8 1.501 1.715 2.054 2.77.445.847.566 2.41.43 3.436-.118.865-.353 1.696-.55 2.534-.118.493-.235.99-.285 1.507-.086.909.044 1.833.291 2.67.238.8.618 1.554.587 2.472-.022.648-.256 1.197-.423 1.777-.39 1.349-.108 2.946.404 4.13.112.252.275.463.464.593.161.112.148-.006.148-.214 0-.142.006-.285.016-.428.015-.297.065-.583.16-.846.47-1.35 1.585-1.629 2.364-2.482.303-.331.522-.821.677-1.318.166-.536.213-1.138.451-1.628.194-.4.497-.682.825-.787.383-.121.791.003 1.121.297.179-.632.192-1.671.189-1.767z" fill="#E75D4E"/><path d="M140.239 11.377c.695.71.893 1.65.439 2.097-.455.446-1.385.232-2.08-.478-.695-.71-.893-1.65-.439-2.097.455-.446 1.385-.235 2.08.478z" fill="#fff"/><path d="M138.017 47.01h17.221l-.114 1.73-16.235-.053c-1.806 0-3.92 1.709-2.768 5.447l7.941 23.564-1.273 1.274-9.321-25.905c-.88-3.036 1.395-6.057 4.549-6.057z" fill="#0B2739"/></svg>