<svg width="105" height="122" fill="none" xmlns="http://www.w3.org/2000/svg" viewBox="0 0 105 122"><path d="M40.611 50.18s-5.802-5.483-6.654-4.524c-.852.958-.053 2.076-.852 1.81-.798-.267-5.057-3.567-5.697-3.3-.638.266.267 2.555-.745 2.183-1.011-.372-13.787-10.754-15.97-9.583-2.184 1.172 4.045 11.925 1.703 11.5-2.342-.427-7.08-3.194-7.613-1.917-.532 1.278.852 3.833.852 3.833h34.976v-.001zM83.661 6.788s-2.53-2.39-2.901-1.973c-.37.418-.024.905-.372.79-.348-.117-2.204-1.555-2.483-1.44-.28.117.116 1.115-.325.953-.442-.163-6.012-4.69-6.963-4.178-.95.51 1.764 5.198.743 5.013-1.022-.186-3.087-1.392-3.32-.835-.231.556.373 1.671.373 1.671H83.66v-.001z" fill="#F4F4F3"/><path d="M45.912 30.02l-.394-.973-.393.973s-.926 2.082-4.514-.834c0 0 .092 3.494 4.365 4.445l-.861 1.725s.062.264 1.405.264 1.406-.264 1.406-.264l-.862-1.725c4.272-.951 4.366-4.445 4.366-4.445-3.592 2.916-4.518.834-4.518.834zM54.703 6.622l-.546-1.093c2.705-.602 2.765-2.815 2.765-2.815-2.273 1.847-2.86.528-2.86.528l-.248-.616-.25.616s-.586 1.32-2.858-.528c0 0 .058 2.213 2.764 2.815l-.545 1.093s.04.167.89.167c.848-.001.888-.167.888-.167zM69.323 12.758c-4.947 4.022-6.224 1.15-6.224 1.15l-.543-1.341-.542 1.341s-1.277 2.872-6.225-1.15c0 0 .127 4.819 6.02 6.13l-1.188 2.379s.086.364 1.938.364c1.852 0 1.938-.364 1.938-.364l-1.188-2.378c5.888-1.312 6.014-6.13 6.014-6.13zM43.56 41.316l-.133-.329-.132.329s-.313.704-1.526-.282c0 0 .03 1.182 1.475 1.504l-.291.583s.02.09.474.09c.454 0 .475-.09.475-.09l-.291-.583c1.444-.32 1.475-1.503 1.475-1.503-1.213.985-1.526.28-1.526.28zM50.828 21.933l-.122-.302-.123.302s-.289.65-1.407-.26c0 0 .028 1.09 1.361 1.386l-.269.538s.02.082.438.082c.419 0 .437-.082.437-.082l-.269-.538c1.332-.296 1.362-1.386 1.362-1.386-1.119.91-1.408.26-1.408.26zM58.755 36.674a7.431 7.431 0 01-2.449 3.171L49.53 44.89s8.037-2.422 8.15.877l-1.708 3.42s.124.524 2.787.524c2.662 0 2.786-.524 2.786-.524l-1.707-3.42c.112-3.299 8.15-.877 8.15-.877l-6.776-5.045a7.396 7.396 0 01-2.457-3.17zM59.56 29.638l-.322.645s.024.099.526.099.526-.1.526-.1l-.323-.644c.022-.622 1.538-.165 1.538-.165l-1.278-.952a1.405 1.405 0 01-.463-.598 1.398 1.398 0 01-.462.598l-1.279.952c0-.001 1.517-.457 1.538.165zM44.505 14.822l-.574 1.148s.042.176.936.176c.893 0 .935-.177.935-.177l-.574-1.147c.038-1.108 2.736-.293 2.736-.293l-2.274-1.695a2.502 2.502 0 01-.823-1.063 2.49 2.49 0 01-.823 1.063l-2.275 1.695c0-.003 2.698-.817 2.736.293zM76.913 91.276c5.747-14.894-3.753-15.714-6.45-17.24-2.697-1.524-3.223-6.321-6.098-9.499-3.12-3.448-9.198-2.23-9.993-2.053-1.514-.792-3.243-.437-4.314-.067-1.518-.289-6.82-1.023-9.663 2.122-2.874 3.176-3.401 7.974-6.099 9.499-2.698 1.525-12.196 2.346-6.45 17.24 0 0-13.134 5.277-5.277 25.447h59.622c7.856-20.171-5.278-25.449-5.278-25.449z" fill="#0B2739"/><path d="M68.65 101.321c-14.822 6.079-26.37 2.993-32.541.166a32.29 32.29 0 01-3.432 2.046C19.923 110.141.407 121.359.407 121.359H104.593s-19.516-11.218-32.27-17.826a32.239 32.239 0 01-3.674-2.212z" fill="#E63780"/><path opacity=".1" d="M51.475 109.154c-11.617.335-20.356 3.258-25.246 12.203H77.498a314.554 314.554 0 00-2.313-2.722c-4.08-4.747-11.613-9.829-23.71-9.481z" fill="#000"/><path d="M60.218 88.677a23.657 23.657 0 002.674-3.056c1.22.887 3.316 2.044 3.748-.091.615-3.049-1.378-4.926-1.378-4.926l-.116-.058c.576-4.16 3.331-13.44-8.004-17.888a13.008 13.008 0 00-2.753-.742L52.872 60.4a.698.698 0 00-.986 0l-1.517 1.517c-.935.147-1.859.39-2.753.742-11.335 4.448-8.58 13.728-8.004 17.888l-.117.058s-1.992 1.876-1.377 4.926c.43 2.135 2.528.978 3.748.091 1.014 1.401 2.145 2.558 2.894 3.266-.268 2.353-1.667 7.81-8.652 12.6 6.17 2.827 17.72 5.913 32.541-.166-6.988-4.897-8.224-10.444-8.431-12.644z" fill="#F8D2B3"/><path opacity=".07" d="M55.975 74.101a13.52 13.52 0 00-7.193 0c-8.62 2.423-6.45 7.496-6.036 9.723.276 1.475 1.807 2.91 3.01 3.836l.012.008c.06.046.348.274.767.646 1.8 1.326 6.447 4.015 11.028.637.498-.493.987-.936 1.432-1.289 1.205-.925 2.739-2.362 3.014-3.84.415-2.225 2.588-7.298-6.034-9.72z" fill="#000"/><path d="M92.592 58.515c.376-.545.308-.931.14-1.078-.518-.455-3.366 2.083-2.404-.4.962-2.485-.8-1.603-1.522-1.282-.722.32-4.648 3.205-3.126.08 1.523-3.124-3.698-.831-4.34-.75-.64.08-.21-.642.375-3.088.71-2.962-8.616 6.002-9.257 3.998-.56-1.749-3.687 1.636-4.47 2.52h24.604z" fill="#F4F4F3"/></svg>