<svg width="91" height="118" fill="none" xmlns="http://www.w3.org/2000/svg" viewBox="0 0 91 118"><path d="M26.627 66.699c-.045.22-.044.591-.549.895-.488.292-2.213.957-2.214 1.105-.002.37.291.474 1.263.434.972-.038 1.59-.123 2.076-.106.16.006.39.001.63-.008a.838.838 0 00.789-1.004 8.826 8.826 0 01-.154-.955c-.055-.664.087-2.042.087-2.042s-.496-.267-1.099-.242c-.604.025-.634.114-.634.114s-.154 1.615-.195 1.809z" fill="#EC624B"/><path d="M28.407 67.235a.122.122 0 01.176.082c.061.287.163.89.14 1.573-.031.824-1.066.515-1.668.535-.9.029-2.085.183-2.915.13-.638-.041-1.36-.182-1.312-.451.064-.371 1.187-.564 1.527-.709.894-.383 1.683-.989 1.93-1.188a.119.119 0 01.145-.004c.108.075.376.191 1.007.196.54-.001.825-.088.97-.164z" fill="#0B2739"/><path d="M24.281 68.276s-.133.088-.104.441M25.517 68.208s-.19-.207-.676-.195M25.168 67.835s-.38.204-.463.728M25.474 67.574s.368.06.499.489" stroke="#89409F" stroke-width=".1" stroke-miterlimit="10" stroke-linecap="round"/><path d="M13.23 25.275a2.045 2.045 0 012.145-2.615 97.1 97.1 0 001.859.153c3.771.246 7.708.055 15.02-1.19 7.93-1.348 14.02-4.113 19.538-7.699 3.873-2.515 6.505-5.02 8.255-7.402.698-.95 2.153-.828 2.665.234.21.438.204.945-.013 1.38-1.564 3.126-4.275 7.79-9.516 11.49-5.377 3.795-11.61 6.35-19.538 7.7-7.312 1.243-17.52-.463-18.568-.589-.858-.101-1.603-.633-1.848-1.462z" fill="#fff"/><path d="M50.104 19.832c-.948.54-1.554 2.018-2.053 3.723-.748 2.549-1.997 7.047-3.066 10.51l-2.753 5.518-1.956-2.122c-2.68-.27-5.002-1.69-6.998-4.981-2.15-3.543-2.847-5.968-4.887-5.918l20.525-7.4" fill="#fff"/><path opacity=".1" d="M48.373 22.562l.004-.01c1.818-3.748 4.215-7.24 8.068-10.567a52.009 52.009 0 016.41-4.705c.029.29-.023.588-.159.857-1.564 3.127-4.275 7.791-9.516 11.49a42.026 42.026 0 01-4.807 2.935z" fill="#000"/><path d="M61.508 6.217l1.3-1.344-.013-3.243a.16.16 0 01.065-.13.159.159 0 01.245.082l.16.514.178-1.218a.426.426 0 01.846.049l.093 3.192.748-.033c.227-.01.33.282.146.415-.012.01-.027.017-.043.025l-1.364.6-1.33 2.498-1.031-1.407z" fill="#EC624B"/><path opacity=".1" d="M16.657 26.332c4.438.614 9.284.373 14.392-.62 1.853.437 4.695 1.036 7.515 1.852 3.6 1.044 5.798 3.765 6.04 6.395.027.285.03.566.01.843l-1.9 3.808a9.372 9.372 0 01-.76.674l-1.681-1.825c-2.68-.27-5.003-1.69-6.999-4.98-1.257-2.07-2.016-3.758-2.839-4.796-6.783.435-14.455-.841-15.358-.949-.772-.092-1.451-.53-1.757-1.223a15.5 15.5 0 003.337.82z" fill="#000"/><path opacity=".2" d="M29.667 24.763c-3.687.574-6.923.002-9.197-1.862 2.97-.03 6.496-.38 11.786-1.281 7.93-1.35 14.02-4.114 19.537-7.7 2.228-1.445 4.04-2.888 5.516-4.306a6.998 6.998 0 01-.38.508c-.572.697-1.55 1.6-2.265 2.205-3.61 3.058-6.184 4.885-10.398 7.193-4.927 2.7-9.837 4.501-14.6 5.243z" fill="#fff"/><path d="M44.55 18.811s.58 2.375-1.304 4.358a2.53 2.53 0 01-3.458.207c-.55-.457-1.171-1.133-1.801-2.132l6.564-2.433z" fill="#EC624B"/><path d="M44.537 18.955s.55-4.772-4.318-3.584c0 0-2.305-.211-2.83 2.413 0 0-1.106.309-2.74-.174-3.941-1.166-11.253-2.372-15.242 2.985-.177.239.047.568.335.493 2.314-.597 8.942-2.001 12.64.356 4.53 2.89 12.155-2.49 12.155-2.49z" fill="#0B2739"/><path d="M24.675 17.056c5.066-1.422 8.932-4.891 10.308-6.313a8.325 8.325 0 013.598-2.206c2.865-.851 2.251.77 1.508 1.605-.728.814-1.07 3.006 1.582 1.71 2.652-1.296 7.481 1.906 4.117 6.23-.297.381-.802 1.121-1.156 1.35l-.096-.477" fill="#0B2739"/><path d="M44.522 18.966l.015-.008c.386-.06.799.015.964.427.176.444-.1.903-.508 1.16-.149.093-.38.197-.558.27l.087-1.849zM13.799 23.506l-1.87.023-2.349-2.234a.16.16 0 00-.249.193l.265.47-1.008-.706a.426.426 0 00-.544.65l2.258 2.256-.537.52c-.163.159-.021.432.202.39a.409.409 0 00.048-.013l1.374-.58 2.73.747-.32-1.716z" fill="#EC624B"/><path d="M42.513 32.773c1.62-.862 4.526-2.253 5.877-2.619 1.711-.462 6.853-1.688 7.613 7.501.81 9.767-6.02 15.36-6.02 15.36l-1.689-.757c.014-.076-1.027-4.239.46-10.426 1.166-4.855-2.22-2.953-3.913-1.709-3.054 2.245-8.21 7.225-15.786 24.658a1.334 1.334 0 01-2.536-.292c-.207-1.156-.451-3.107-.382-5.592.308-11.017 6.646-20.945 16.376-26.124z" fill="#0B2739"/><path opacity=".2" d="M44.592 40.314l-.094.072a.744.744 0 00-.052.041c-1.85 1.426-4.396 3.886-7.696 9.204-2.885-.32-6.798.889-9.459 1.842 1.894-6.608 6.01-12.42 11.656-16.476l.353-.247c3.053-.987 7.161-1.172 10.715 2.028 3.487 3.141 5.155 6.692 3.487 11.89-1.35 2.303-2.825 3.739-3.333 4.197h-.002l-.052.048s-.002 0-.002.002a.374.374 0 01-.04.036l-.004.003a.297.297 0 01-.032.027c-.002 0-.002.002-.004.003a.111.111 0 00-.019.018l-.007.006-.007.006c-.01.006-.014.012-.014.012l-1.69-.758c.002-.011-.021-.124-.058-.327-.008-.04-.014-.084-.022-.134-.056-.335-.13-.849-.185-1.517a22.476 22.476 0 01-.074-1.664c-.018-1.759.15-4.078.8-6.786.074-.303.129-.58.167-.834.04-.254.061-.48.069-.685.015-.411-.028-.73-.117-.972-.157-.425-.459-.615-.835-.647-.918-.081-2.294.767-3.196 1.428a13.1 13.1 0 00-.163.122c-.032.018-.061.04-.09.062z" fill="#000"/><path opacity=".1" d="M28.815 59.822c.945.337 1.796.204 2.621-.286a172.776 172.776 0 00-2.383 5.25 1.331 1.331 0 01-2.534-.293c-.205-1.155-.451-3.105-.382-5.59a29.93 29.93 0 01.773-5.977c.004 0 .002.001.007.002-.597 3.624.088 6.247 1.898 6.894z" fill="#fff"/><path d="M48.36 52.141c-.564 1.233-1.45 2.291-1.89 2.622-.214.159-2.405 1.051-.79 2.091 1.553 1.001 2.478-.056 2.907-.658.396-.555 1.317-3.244 1.575-3.688.256-.446-1.29-1.481-1.801-.367z" fill="#EC624B"/><path d="M49.085 55.534a.738.738 0 00-.088-.705c-.15-.203-.417-.443-.877-.616-.986-.372-1.53.052-1.53.052s-1.767 1.286-2.025 1.782c-.245.471-.26.816 1.223 1.476 1.484.66 2.2.33 2.565-.328.255-.463.57-1.243.732-1.661z" fill="#0B2739"/><path d="M47.356 56.73s-.585-.913-1.722-.769M47.944 55.7s-.991-.6-1.817-.146M46.569 54.979s1.082.657.976 1.384M48.155 55.22s-.505-.523-1.2-.497" stroke="#89409F" stroke-width=".1" stroke-miterlimit="10" stroke-linecap="round"/><path opacity=".15" d="M29.9 18.404c-.604-.834-.935-1.928-.928-3.12 2.91-1.59 5.057-3.555 6.01-4.54a8.325 8.325 0 013.598-2.206c.254-.075.48-.13.681-.17-.042.064-.085.125-.127.19-1.46 2.218-1.777 4.146-.784 4.975.922.772 2.02.416 3.416-.45.7-.434 1.405-.94 2.058-1.434 1.425.313 2.781 1.403 3.06 2.944-1.392 1.124-2.58 1.92-4.339 2.882-2.468 1.352-4.929 2.255-7.315 2.627-2.283.357-4.218-.163-5.33-1.698z" fill="#000"/><path d="M46.44 64.97c.18-.213.021-.544-.258-.53a12.992 12.992 0 00-4.417 1.008C36.214 67.8 22.654 74.206 10.09 84.679l1.315 1.433s15.992-8.767 23.484-7.486L46.44 64.97z" fill="#184F75"/><path d="M80.454 41.244l-5.007 4.593-.2-.218 5.007-4.593a.148.148 0 01.21.01c.054.059.05.153-.01.208z" fill="#019DF4"/><path d="M53.686 72.868c.228-.16.544.027.507.303a12.994 12.994 0 01-1.385 4.314c-2.822 5.328-10.373 18.285-21.89 29.9l-1.315-1.434s10.113-15.178 9.482-22.752l14.601-10.33z" fill="#184F75"/><path opacity=".2" d="M35.307 95.975a95.886 95.886 0 01-3.854 7.024 18.472 18.472 0 002.174 1.554c9.994-10.823 16.587-22.17 19.18-27.067a12.9 12.9 0 001.385-4.314c.038-.278-.278-.465-.507-.303l-12.586 8.903c.471 2.633.844 4.791.876 7.25.045 3.428-1.22 6.232-3.308 7.232-1.434.691-2.459.482-3.36-.279zM21.856 81.311c-2.808 1.09-5.42 2.3-7.33 3.235a18.445 18.445 0 01-1.36-2.3C24.808 73.22 36.68 67.63 41.783 65.47a12.901 12.901 0 014.417-1.009c.28-.014.44.317.258.531l-9.954 11.772c-2.582-.696-4.7-1.253-7.148-1.497-3.41-.34-6.313.678-7.49 2.672-.812 1.37-.692 2.409-.011 3.372z" fill="#41A8EF"/><path d="M77.319 43.575c-1.962-.839-15.88-4.482-48.31 41.112l1.768 1.927 1.767 1.927C80.763 60.16 78.332 45.979 77.665 43.953a.627.627 0 00-.346-.378z" fill="#091F2E"/><path opacity=".2" d="M77.664 43.951a.622.622 0 00-.345-.375c-.809-.346-3.654-1.169-8.992 1.182-.084 3.142-1.061 6.496-2.818 9.893-3.678 7.112-9.102 13.897-15.945 20.236-5.852 5.422-10.085 8.513-16.804 12.59-.24.145-.5.299-.773.456l.556.606C80.76 60.16 78.328 45.98 77.663 43.951z" fill="#184F75"/><path opacity=".2" d="M58.912 71.204c-5.442-7.322-10.434-11.39-10.485-11.43l.188-.233c.051.04 5.069 4.131 10.536 11.487l-.239.176zM65.817 55.414c-2.48 2.164-5.743 2.079-7.146.023-1.265-1.853-.536-4.68 1.517-6.473 2.053-1.793 4.955-2.132 6.62-.628 1.846 1.67 1.486 4.916-.991 7.078z" fill="#fff"/><path d="M65.19 54.698c-1.927 1.684-4.468 1.618-5.558.02-.984-1.443-.418-3.64 1.18-5.036 1.599-1.396 3.854-1.66 5.15-.488 1.434 1.297 1.156 3.82-.772 5.504z" fill="#3A96D5"/><path d="M34.636 88.189l-5.324-5.804-.43.394 5.324 5.804.43-.394z" fill="#0B2739"/><path d="M20.686 117.368c-12.53-11.027 2.37-20.245 8.887-28.71C-1.17 104.196-1.034 110.016 1.64 117.033c1.114.056 6.483.201 19.046.335z" fill="url(#paint0_linear)"/><defs><linearGradient id="paint0_linear" x1="15.058" y1="117.368" x2="15.058" y2="85.201" gradientUnits="userSpaceOnUse"><stop stop-color="#019DF4"/><stop offset="1" stop-color="#0086D1"/></linearGradient></defs></svg>